<?xml version="1.0" encoding="UTF-8"?>
<svg id="Layer_1" xmlns="http://www.w3.org/2000/svg" version="1.1" viewBox="0 0 7000 5000">
  <defs>
    <style>
      .st0 { fill: #1A3A50; }
      .st1 { fill: #060D1A; }
      .st2 { fill: #4A8AD4; }
      .st3 { fill: #C8DCE0; }
      .st4 { fill: #C8DCE0; }
      .st5 { fill: #020810; }
      .st6 { fill: #0C1828; }
      .st7 { fill: #1A4A8A; }
      .st8 { fill: #7DD4D0; }
      .st9 { fill: #2860B0; }
      .st10 { fill: #1A3A50; }
      .st11 { fill: #7DD4D0; }
      .st12 { fill: #4A8AD4; }
      .st13 { fill: #EEF6FA; }
    </style>
    <filter id="bond-halo-outer" x="-150%" y="-150%" width="400%" height="400%">
      <feGaussianBlur stdDeviation="200" />
    </filter>
    <filter id="bond-halo-mid" x="-100%" y="-100%" width="300%" height="300%">
      <feGaussianBlur stdDeviation="100" />
    </filter>
    <filter id="bond-halo-core" x="-80%" y="-80%" width="260%" height="260%">
      <feGaussianBlur stdDeviation="50" />
    </filter>
  </defs>

  <!-- Atmospheric halo — sits behind the figure -->
  <ellipse cx="4000" cy="1900" rx="2000" ry="1300" fill="#1A4A8A" opacity="0.52" filter="url(#bond-halo-outer)" />
  <ellipse cx="4100" cy="1750" rx="1100" ry="750" fill="#2860B0" opacity="0.40" filter="url(#bond-halo-mid)" />
  <ellipse cx="4200" cy="1650" rx="550" ry="380" fill="#4A8AD4" opacity="0.35" filter="url(#bond-halo-core)" />

  <g id="Generative_Object">
    <path class="st12" d="M3555.3,2070.4c-1.4,8-4.3,13.3-5.3,21.2-19.5,153,11.2,315.9,111.5,435.3-4.1,1.4-6.7,3.6-10.6,5.3l-108.8-26.5c-165.1,54.6-333.7,98.5-504.3,132.7-54.8,11-152.6,10.3-193.8,31.9-283.8,9-570.5,36.8-854.7,58.4-55.4-14.8-84.1-37.1-47.8-92.9,30.4-46.8,116.7-56.9,164.6-77,156.9-65.8,323.7-156.8,493.7-169.9l61.1,79.6,130.1-79.6c46.5-5.3,356.7-167.4,406.1-201.7,23.4-16.2,36.3-46,61.1-63.7,87.2-62.3,195.2-120.7,297.3-53.1Z"/>
    <path class="st6" d="M2196.3,2967.6c-72.4,46.4-154.2,72.5-148.6,177.8,11.3,28,71.6,5.7,95.6,2.7l-459.2,711.4c-16.9-178-117.9-310.9-284-374.3,127.4-115.4,288.4-195.1,422-299.9,77.1-60.5,220-232.5,307.9-238.9,19.2-1.4,56.1-.2,66.4,21.2Z"/>
    <path class="st6" d="M2106,2558.8c-47.9,20.1-134.1,30.2-164.6,77-36.3,55.8-7.7,78.1,47.8,92.9l-666.3,472.5-13.3-2.7c60.5-167.2-1.2-335.2-132.7-445.9,174.6-62.6,367.9-78.5,544.1-130.1,117.4-34.4,278.6-150,384.9-63.7Z"/>
    <path class="st12" d="M2631.6,2739.3c14.8,13.1,57.3,70.4,71.7,74.3,19.2,5.3,111.8-4.9,148.6,0,75.1,9.9,151.8,36.2,225.6,53.1-263.5,129.6-641.4,243.8-934.3,281.4-23.9,3.1-84.2,25.3-95.6-2.7-5.5-105.4,76.3-131.5,148.6-177.8,120.7-77.3,300.2-201.5,435.3-228.3Z"/>
    <path class="st7" d="M3650.9,2532.2c-165.3,69.8-388.9,243.7-573.3,334.5-73.8-16.9-150.5-43.2-225.6-53.1-36.9-4.9-129.5,5.3-148.6,0-14.4-3.9-56.9-61.3-71.7-74.3,44.3-8.8,130.7-8.4,156.6-15.9,7.9-2.3,39.6-44.6,55.7-53.1,41.2-21.6,139-20.9,193.8-31.9,170.7-34.2,339.2-78.1,504.3-132.7l108.8,26.5Z"/>
    <path class="st6" d="M4054.3,1497c-9.4,2.7-24.8,13.8-31.9,15.9-25.7,7.8-49.8,18.8-74.3,26.5-74.1,23.3-149.3,44.5-223,69-24.7,8.2-49.7,18.4-74.3,26.5-98.5,32.8-315.7,54.9-318.5,175.2l-361,132.7c-.4-10.1-37-71.7-37.2-90.2,70.8-28.2,219-159.3,299.9-207,190.3-112.2,359.8-125,578.7-143.3,79.8-6.7,161.5-12,241.5-5.3Z"/>
    <path class="st5" d="M4999.3,1789c-33.1-30-90.5-69.2-135.4-47.8-9.1,4.3-28,41.1-37.2,42.5-9.3,1.4-74.5-39.4-87.6-47.8s6.1-20.7-13.3-15.9c-17.8,10.8-16.6,30.9-31.9,42.5-16,12.1-23.6-21.4-29.2,0-97.1-33.4-11.6,60.1-10.6,66.4.5,3.5-22.4,64-42.5,50.4-4.7-12-15.1-13.3-21.2-31.9s-10.2-12.3-15.9-42.5c-15-79.6,20.6-282.7,119.4-302.6,108.9-21.9,448.8,127.7,342.4,262.8-11.1,14.2-32.6,18.1-37.2,23.9Z"/>
    <path class="st8" d="M3650.9,1635.1l74.3,286.7c-47.7,13.6-95,35-143.3,47.8-23.4,6.2-88.2,30.9-103.5,31.9-29.3,1.9-57.2-18.4-71.7-15.9-39-49.6-75.9-108.5-74.3-175.2,2.9-120.3,220-142.4,318.5-175.2Z"/>
    <path class="st8" d="M4293.2,1502.3l10.6,31.9,42.5,159.3c-7.4,9-7,28.8-15.9,37.2-51.3,48.1-155.3,58.6-223,79.6l-84.9-297.3c7.1-2.2,22.4-13.2,31.9-15.9,20.6-6,64.5-24.4,74.3-26.5,10.1-2.2,30.7-4,42.5-5.3,23.3-2.6,53,6.3,74.3-5.3,15.3,7.6,33.6,30.5,47.8,42.5Z"/>
    <path class="st12" d="M3794.2,2505.7c-19.9,2.8-50.6,2.9-63.7,5.3,87.6-222,257.8-322.7,496.4-292,41,5.3,284.5,66.9,209.7,146-15.4,16.3-84-35.8-108.8-45.1-219.9-82.6-432.3-40.2-533.5,185.8Z"/>
    <path class="st2" d="M3990.6,3328.6c-24.5,94-3.3,227.7-74.3,310.6-27.6,32.2-31.6,15.1-39.8,18.6-7.5,3.2-15.8,22.5-26.5,21.2-37.6-4.4,17.9-96.1,29.2-108.8l-10.6-5.3c-107.9,173.9-27.7-38.2-15.9-95.6-133,135.3-54.3-52.6-15.9-111.5,8.6-13.2,48.9-66.2,63.7-66.4,7,0,72.6,39.3,90.2,37.2Z"/>
    <path class="st2" d="M2971.3,1943c1.2,34.9-89.3,190.3-130.1,191.1-57.5,1.1,25-79.4,15.9-106.2-44.2,24.8-107.2,97.5-156.6,61.1-10.7-21.4,150.9-91.9,98.2-108.8-6.8-2.2-95,84.2-124.8,61.1,16.8-57.2,207.5-154.5,29.2-87.6-35.9-6.4,84.1-76.3,95.6-79.6,39.8-11.7,93.1-4.4,135.4-21.2.1,18.5,36.8,80.1,37.2,90.2Z"/>
    <path class="st2" d="M4664.8,1762.5c9,3.1,98.8,45.2,100.9,50.4,6.8,17.6-57.4,86.5,18.6,156.6,56.4,52.1,97.3,30.2,143.3-21.2,15.6,17.5-3.9,40-13.3,53.1-8.8,12.3-50.3,49.9-63.7,63.7-5.9-50.1-78.3-20.4-111.5-15.9-19.9-12.4-58.3-26.1-74.3-42.5-33.6-34.5-37.5-88-53.1-127.4,20.1,13.5,43-47,42.5-50.4-1-6.3-86.4-99.7,10.6-66.4Z"/>
    <path class="st11" d="M4994,1879.3c-1,29.1-26.8,101.9-47.8,122.1,18.1-164.7-59,39.7-146-42.5s-25.2-143.3,10.6-148.6c12.8-1.9,154,68.9,183.2,69Z"/>
    <path class="st1" d="M4739.2,1735.9l-23.9,10.6c74.3,42.9,193.4,64.5,262.8,106.2,7.2,4.3,16,5.8,21.2,13.3,4.1,12.9-5.3,12.6-5.3,13.3-29.2,0-170.4-70.9-183.2-69-35.9,5.3-51.7,109.8-10.6,148.6,87,82.1,164.1-122.2,146,42.5-14.7,14.2-14.5,27.4-31.9,0,9.3-13.1,28.9-35.5,13.3-53.1-46,51.4-86.9,73.3-143.3,21.2-76-70.1-11.7-139-18.6-156.6-2-5.3-91.9-47.3-100.9-50.4,5.6-21.4,13.2,12.1,29.2,0,15.2-11.6,14.1-31.6,31.9-42.5,19.4-4.8,11.7,14.9,13.3,15.9Z"/>
    <path class="st12" d="M4595.8,2001.4c9.1,22.7,7.9,76.1,31.9,90.2-21.6,59.1-15.3,106.1-53.1,164.6v-5.3c21.1-153.2-16.4-307.2-116.8-424.7-.5-.6-.5-10.9-5.3-15.9l26.5-10.6c34.5,56.6,93.1,142.9,116.8,201.7Z"/>
    <path class="st7" d="M3581.9,1969.5c-11.7,32.8-20.5,66.5-26.5,100.9-102.1-67.7-210.1-9.2-297.3,53.1,21.7-18.1,133.6-135.4,148.6-138,14.4-2.5,42.4,17.8,71.7,15.9,15.3-1,80.1-25.6,103.5-31.9Z"/>
    <path class="st2" d="M4739.2,1735.9c13.1,8.3,78.3,49.2,87.6,47.8,9.2-1.4,28-38.1,37.2-42.5,44.9-21.4,102.3,17.8,135.4,47.8-11.8,15-9.7,46.7-21.2,63.7-69.4-41.7-188.5-63.3-262.8-106.2l23.9-10.6Z"/>
    <path class="st7" d="M2790.8,2388.9l-130.1,79.6-61.1-79.6c63.3-4.9,135,6.4,191.1,0Z"/>
    <path class="st0" d="M4643.6,2054.5c-1,13.8-11.4,24.8-15.9,37.2-24-14.2-22.7-67.6-31.9-90.2,18.7,14.1,31.6,36.8,47.8,53.1Z"/>
    <path class="st1" d="M4452.5,1810.3c4.8,5,4.8,15.3,5.3,15.9-25.6-9.8-43.5-38.6-66.4-53.1-66-41.9-64.4-26.6-130.1,8,116.6,97.2,239.5,219.4,220.3,384.9-209.2-120.2-485.5-125.4-722-111.5-24.5,1.4-188.1,10.6-196.4,15.9-8,5.1,6,34.5-13.3,21.2,1-8,3.9-13.3,5.3-21.2,6-34.3,14.9-68.1,26.5-100.9,48.3-12.8,95.6-34.2,143.3-47.8,24.8-7.1,49.6-14.2,74.3-21.2,76.9-22,152-45.7,228.3-69,24.9-7.6,52.5-12.8,79.6-21.2,67.6-21,171.7-31.6,223-79.6,39.8,20.3,91.2,47.3,122.1,79.6Z"/>
    <g>
      <path class="st6" d="M4457.8,1826.2c100.4,117.5,137.9,271.5,116.8,424.7-8.7.5-4.5,9.9-5.3,15.9-26.5,196.6-278.8,365.5-366.3,522.9-41.5,74.8-190.5,455-212.4,538.8-17.7,2.1-83.2-37.2-90.2-37.2,39.5-290.1,72.1-579.2,260.1-814.9-8.4-11.9-22.1-8-34.5-8-84.3,0-243,24.6-331.8,37.2,101.2-226,313.6-268.4,533.5-185.8s93.5,61.4,108.8,45.1c74.8-79.1-168.7-140.7-209.7-146-238.5-30.8-408.8,70-496.4,292-22.2,4-47.7,8.4-69,15.9-100.3-119.4-130.9-282.3-111.5-435.3,19.3,13.3,5.3-16.1,13.3-21.2,8.3-5.3,171.9-14.5,196.4-15.9,236.5-14,512.8-8.8,722,111.5,19.2-165.5-103.7-287.7-220.3-384.9,65.6-34.5,64.1-49.8,130.1-8,22.9,14.5,40.8,43.3,66.4,53.1Z"/>
      <path class="st10" d="M4574.6,2256.2c-1.3,2,3.1,11.1-5.3,10.6.8-6-3.4-15.4,5.3-15.9v5.3Z"/>
      <path class="st6" d="M4216.2,2298.7c29.8-12.3-10.7,82.1-13.3,87.6-11.1,23.2-29.3,74.2-55.7,66.4-10.2-5.8,57.7-149.3,69-154Z"/>
    </g>
    <path class="st8" d="M3948.2,1539.5l79.6,292c-76.3,23.3-151.4,47-228.3,69l-74.3-292c73.7-24.6,148.9-45.7,223-69Z"/>
    <path class="st13" d="M4022.5,1513l84.9,297.3c-27.2,8.4-54.7,13.6-79.6,21.2l-79.6-292c24.5-7.7,48.7-18.7,74.3-26.5Z"/>
    <path class="st13" d="M3799.5,1900.5c-24.7,7.1-49.5,14.2-74.3,21.2l-74.3-286.7c24.6-8.2,49.6-18.3,74.3-26.5l74.3,292Z"/>
    <path class="st13" d="M4479,1799.6l-26.5,10.6c-30.9-32.4-82.3-59.3-122.1-79.6,8.9-8.4,8.5-28.2,15.9-37.2s36.2-13.4,39.8-42.5c37.1,45.9,62.5,98.7,92.9,148.6Z"/>
    <g>
      <path class="st1" d="M3820.7,966.2c108.8,147.9,243.7,307.8,390.2,419.4,65.2,49.7,140.3,13.7,193.8,87.6,33.9,46.9,15.3,80.4,26.5,116.8,3.9,12.7,80.3,104.6,95.6,132.7,14.7,27.2,18.1,80.6,47.8,82.3,5.7,30.2,8.9,21.3,15.9,42.5l-47.8-8c34.8,61.3,59.6,122.9,111.5,172.5,18.1,17.4,43.6,48,71.7,47.8,2.6,0,12.4-10.5,13.3-10.6,33.2-4.5,105.6-34.2,111.5,15.9-12.7,13.1-22.5,27.4-37.2,39.8-4.6,3.9,8.1,8.9,2.7,13.3-3.9,3.1-90.7,33.2-95.6,31.9-8.7-2.4-30.4-61.4-34.5-66.4-13.8-16.7-36.1-22.7-42.5-29.2-16.1-16.3-29.1-38.9-47.8-53.1-23.7-58.8-82.3-145.2-116.8-201.7-30.4-49.9-55.8-102.8-92.9-148.6-3.6,29.1-37.9,40.1-39.8,42.5l-42.5-159.3,69,45.1c-26.4-25.9-51.3-53.1-79.6-77-14.2-12-32.5-34.8-47.8-42.5-25.3-12.7-46.5-7.4-74.3,5.3-11.8,1.3-32.3,3.1-42.5,5.3-40.9-45.5,70.3-36.5,74.3-50.4-164.7-132-308-286.9-430-459.2,14.8,2.4,31.9,3,47.8,5.3Z"/>
      <path class="st9" d="M4590.5,1847.4c6.2,18.5,16.5,19.9,21.2,31.9,15.6,39.4,19.4,92.9,53.1,127.4l-10.6,5.3c-51.9-49.7-76.7-111.3-111.5-172.5l47.8,8Z"/>
      <path class="st13" d="M4290.6,1443.9c52.3,12.6,111.5,49,106.2,111.5l-106.2-111.5Z"/>
      <path class="st13" d="M4407.4,1619.1c50.8,43.3,84.3,104.9,111.5,164.6-44.6-49.4-74.4-110.1-111.5-164.6Z"/>
      <path class="st4" d="M4739.2,2049.1c-.8.1-10.6,10.6-13.3,10.6-28.1.2-53.5-30.4-71.7-47.8l10.6-5.3c16,16.4,54.4,30.1,74.3,42.5Z"/>
      <path class="st3" d="M4303.8,1534.2l-10.6-31.9c28.3,23.9,53.3,51,79.6,77l-69-45.1Z"/>
      <path class="st8" d="M4245.4,1459.9c-21.3,11.6-51.1,2.7-74.3,5.3,27.9-12.7,49-18,74.3-5.3Z"/>
    </g>
  </g>

  <!-- Bubbles rising from Bond — cobalt, red, teal alternating like OriginalSilhouette -->
  <circle cx="4820" cy="1380" r="130" fill="none" stroke="#4A8AD4" stroke-width="15" opacity="0.55" />
  <circle cx="5030" cy="1080" r="91"  fill="none" stroke="#2860B0" stroke-width="12" opacity="0.45" />
  <circle cx="4960" cy="1580" r="169" fill="none" stroke="#4A8AD4" stroke-width="18" opacity="0.40" />
  <circle cx="5100" cy="1050" r="72"  fill="none" stroke="#4A8AD4" stroke-width="11" opacity="0.60" />
  <circle cx="4620" cy="870"  r="124" fill="none" stroke="#2860B0" stroke-width="14" opacity="0.35" />
  <circle cx="5150" cy="680"  r="98"  fill="none" stroke="#4A8AD4" stroke-width="12" opacity="0.50" />
  <circle cx="4380" cy="1100" r="78"  fill="none" stroke="#2860B0" stroke-width="11" opacity="0.30" />
  <circle cx="4680" cy="420"  r="104" fill="none" stroke="#c1272d" stroke-width="13" opacity="0.60" />
  <circle cx="5010" cy="530"  r="72"  fill="none" stroke="#c1272d" stroke-width="11" opacity="0.50" />
  <circle cx="4880" cy="760"  r="150" fill="none" stroke="#c1272d" stroke-width="17" opacity="0.40" />
  <circle cx="4740" cy="190"  r="59"  fill="none" stroke="#c1272d" stroke-width="10" opacity="0.55" />
  <circle cx="5060" cy="960"  r="110" fill="none" stroke="#c1272d" stroke-width="13" opacity="0.35" />
  <circle cx="4750" cy="360"  r="85"  fill="none" stroke="#7DD4D0" stroke-width="12" opacity="0.50" />
  <circle cx="4990" cy="470"  r="130" fill="none" stroke="#7DD4D0" stroke-width="15" opacity="0.35" />
  <circle cx="4860" cy="660"  r="65"  fill="none" stroke="#7DD4D0" stroke-width="10" opacity="0.55" />
  <circle cx="5020" cy="870"  r="104" fill="none" stroke="#7DD4D0" stroke-width="13" opacity="0.40" />
  <circle cx="4790" cy="1060" r="163" fill="none" stroke="#7DD4D0" stroke-width="18" opacity="0.30" />
</svg>
