<?xml version="1.0" encoding="UTF-8" standalone="no"?><!DOCTYPE svg PUBLIC "-//W3C//DTD SVG 1.1//EN" "http://www.w3.org/Graphics/SVG/1.1/DTD/svg11.dtd"><svg width="100%" height="100%" viewBox="0 0 15625 10417" version="1.1" xmlns="http://www.w3.org/2000/svg" xmlns:xlink="http://www.w3.org/1999/xlink" xml:space="preserve" xmlns:serif="http://www.serif.com/" style="fill-rule:evenodd;clip-rule:evenodd;stroke-linejoin:round;stroke-miterlimit:2;"><rect x="-0" y="-0" width="15625" height="10416.667" style="fill:#b5c0e4;"/><clipPath id="_clip1"><rect x="-0" y="-0" width="15625" height="10416.667"/></clipPath><g clip-path="url(#_clip1)"><path d="M-550.613,5193.788c617.432,103.647 463.73,-766.413 3549.03,-436.827c1199.762,128.164 1876.999,490.231 3086.882,451.372c1682.125,-54.026 6904.451,724.242 9360.925,222.646c2252.148,-459.874 2125.662,1089.715 1614.823,1689.988c-963.847,1132.588 -1906.037,1547.765 -2094.223,1630.69c-3626.742,1598.129 -6598.65,1008.063 -9966.483,1008.063c-1055.038,-0 -1073.954,-289.993 -2497.929,148.245c-1110.744,341.839 -1368.381,537.471 -2144.686,385.436c-1046.557,-204.963 -1071.177,45.844 -1135.422,-29.649c-17.841,-20.965 17.841,-67.982 -0,-88.947l227.084,-4981.016Z" style="fill:#4f70db;"/><path d="M4540.725,3693.642c12.174,17.303 8.502,51.141 -21.694,127.409c-101.856,257.26 -333.518,345.134 -372.244,359.824c-93.263,35.377 -93.086,52.971 -400.275,31.514c-145.86,-10.189 -138.351,-41.107 -132.765,-51.02c39.082,-69.345 555.363,220.546 858.97,-312.35c1.611,-2.828 42.294,-91.373 68.007,-155.376Zm-18.582,-13.375c-12.16,19.72 -27.563,45.77 -46.773,79.299c-10.584,18.473 -24.938,34.609 -35.522,53.082c-212.828,355.391 -642.397,268.563 -863.121,213.348c-53.117,-13.287 -37.166,-61.532 16.886,-52.3c169.235,28.906 244.034,93.491 534.435,35.921c51.124,-10.135 208.068,-100.04 209.69,-101.6c6.959,-6.692 8.64,-17.712 15.599,-24.404l-10.816,-4.371c-161.232,76.512 -215.222,65.151 -306.531,61.26c-316.837,-13.504 -321.586,-35.496 -441.932,-88.958c-47.559,-21.128 -119.651,-30.834 -119.188,-59.684c1.037,-64.628 212.872,70.32 315.628,83.721c305.84,39.886 453.342,57.796 564.017,-54.076l6.85,-15.642c-242.487,68.47 -349.646,83.574 -675.066,-33.213c-41.717,-14.972 -223.405,-106.938 -223.761,-133.647c-0.865,-64.884 174.675,68.926 192.455,75.216c369.141,130.581 377.482,129.105 715.847,60.972l21.377,-6.514c-1.039,-6.614 6.759,-12.641 5.72,-19.255c-1.727,-10.988 -94.357,13.203 -194.893,20.481c-369.1,26.719 -740.485,-233.366 -743.726,-268.353c-5.227,-56.427 91.371,28.245 273.811,133.664c120.843,69.826 476.122,139.347 708.314,74.353l22.191,-24.412c-36.503,-60.172 -52.403,-31.979 -121.709,-37.64c-126.529,-10.335 -188.074,-34.91 -214.38,-39.136c-296.287,-47.604 -669.397,-376.849 -621.438,-404.941c28.785,-16.861 103.157,70.339 118.703,83.89c287.607,250.705 503.169,298.103 747.821,331.173c95.13,12.859 139.783,-20.72 131.809,56.371c6.488,1.618 12.438,3.3 17.705,5.396Zm0,0c54.629,-88.588 43.81,-49.419 18.582,13.375c-4.341,-6.169 -10.696,-10.237 -18.582,-13.375Zm6531.075,144.22c-0.259,5.336 10,7.393 9.74,12.729c-0.838,17.248 -368.22,78.703 -689.949,-144.497c-134.52,-93.324 -215.182,-143.184 -289.895,-269.685c-29.197,-49.436 4.84,-62.071 24.614,-41.902c67.951,69.308 52.637,84.367 220.107,221.165c322.001,263.028 645.058,223.726 711.511,221.528c-8.704,-4.103 -9.769,-18.08 -18.473,-22.183c-41.678,-19.646 -219.673,49.108 -527.503,-166.901c-49.626,-34.824 -40.94,-43.423 -88.732,-79.406c-92.909,-69.952 -297.77,-356.98 -252.022,-376.491c50.428,-21.507 85.822,102.587 100.111,117.79c126.06,134.124 235.901,426.816 725.891,480.383c52.447,3.541 68.615,-4.278 74.6,47.47Zm38.177,75.08c4.515,28.922 13.566,86.902 -342.182,129.602c-252.069,30.255 -803.905,-110.624 -733.154,-177.773c29.174,-27.689 36.647,50.809 183.531,69.356c193.316,24.409 349.661,151.594 810.704,25.556c11.757,-3.214 11.756,-3.088 11.761,-4.084c0.067,-12.187 -11.703,-6.52 -11.636,-18.877c-415.213,71.821 -503.498,12.148 -658.456,-37.138c-71.194,-22.644 -405.219,-264.637 -303.851,-276.698c73.595,-8.757 65.085,171.316 533.84,304.437c43.159,12.257 301.856,1.227 426.071,-21.226c75.144,-13.583 74.943,-15.974 79.545,-11.422c4.423,4.375 -0.597,13.892 3.827,18.267Zm244.76,349.641c-121.489,117.598 -101.642,226.412 -445.781,372.344c-401.266,170.156 -446.412,116.771 -425.806,88.733c21.432,-29.162 615.029,-89.126 844.479,-481.126c18.975,-32.417 16.582,-36.544 26.573,-36.538c6.643,0.004 8.936,12.425 15.579,12.429l14.995,-56.711c74.701,-84.83 30.783,24.262 29.566,27.239c-66.322,162.238 -52.03,168.12 -146.131,315.738c-104.729,164.29 -519.496,392.04 -621.667,382.664c-106.277,-9.752 137.768,-84.84 187.037,-115.031c212.964,-130.496 219.089,-119.209 235.956,-132.799c104.752,-84.402 226.051,-182.149 285.198,-376.941Zm-494.256,-524.16c-394.114,-160.623 -449.057,-386.461 -597.461,-649.335c-43.127,-76.393 -1.197,-75.181 0.762,-74.24c93.91,45.102 105.046,476.294 611.415,698.803c55.288,25.36 305.35,37.096 126.328,60.738c-10.025,-8.13 -5.429,-14.018 -18.994,-15.403c-61.78,-6.311 -61.269,-3.457 -122.049,-20.562Zm2399.523,281.734c7.462,182.773 14.897,182.623 -9.328,364.459c-2.593,19.461 6.992,19.736 -7.105,245.305c-11.575,185.224 -55.631,234.225 -62.818,181.923c-3.943,-28.692 51.548,-526.083 38.547,-764.193c-1.855,-195.047 -3.467,-194.757 -3.142,-211.691c1.199,-62.374 -10.271,-159.036 25.235,-139.31c11.715,6.508 27.264,216.778 18.611,323.507Zm-2221.778,-347.071c-314.821,-172.917 -304.043,-268.017 -457.265,-536.415c-71.801,-125.775 -70.481,-125.409 -113.098,-263.662c-3.561,-11.553 -81.526,-145.589 -19.723,-105.717c72.951,47.064 18.72,83.036 210.244,429.257c107.597,194.505 82.723,214.892 252.511,358.003c119.124,100.407 189.608,105.305 140.611,155.429c-24.684,25.251 -275.426,-92.958 -396.486,-249.236c-90.333,-116.612 -127.374,-93.642 -317.133,-523.975c-18.654,-42.304 20.784,-53.548 44.723,-13.802c49.038,81.417 107.932,352.034 419.729,635.019c33.253,30.18 212.861,134.653 225.45,129.63c5.539,-2.21 4.897,-12.321 10.436,-14.531Zm-6533.775,367.053c-44.914,67.856 -164.518,305.143 -556.975,357.531c-12.271,1.638 -142.452,19.016 -154.307,-11.736c-39.848,-103.364 442.07,71.235 713.298,-416.891c92.587,-166.628 97.286,-298.89 128.655,-271.665c12.247,10.63 -54.226,236.979 -130.671,342.761Zm-46.207,244.076c-38.848,38.793 -220.63,258.89 -403.816,283.035c-62.498,8.237 -64.082,-34.029 -30.276,-44.567c46.397,-14.462 300.801,-93.761 480.862,-371.235c93.826,-144.586 175.259,-465.401 176.482,-466.023c78.71,-40.011 -89.717,426.974 -157.992,513.314c-33.873,42.836 -31.403,43.654 -65.259,85.476Zm6882.531,278.411c5.815,-21.044 23.998,-86.841 95.153,-255.789c5.721,-13.584 61.983,-147.17 80.293,-165.823c106.467,-108.464 -90.064,268.492 -126.63,395.265c-87.134,302.097 -555.643,522.714 -568.3,456.068c-13.444,-70.788 303.571,-54.06 519.485,-429.721Zm-6547.014,-816.332c-82.615,363.289 -49.136,516.286 -359.397,835.514c-57.223,58.877 -218.41,121.838 -161.028,51.139c19.723,-24.301 281.383,-145.454 407.648,-522.221c16.601,-49.537 47.1,-237.887 50.47,-258.702c10.837,-66.925 34.346,-156.612 37.881,-170.098c5.517,-21.049 24.727,-16.287 29.364,-10.493c7.954,9.939 3.271,10.712 -4.939,74.86Zm565.164,812.88c-74.389,35.397 -26.659,-34.556 -10.95,-204.979c11.394,-123.607 36.287,-119.928 69.841,-548.285c20.859,-266.282 -17.854,-600.683 31.52,-338.261c55.492,294.941 -66.671,1016.711 -90.411,1091.525Zm-686.147,-1892.845c-76.823,-83.815 -72.831,-85.013 -146.08,-172.676c-143.079,-171.233 -466.274,-706.442 -439.429,-730.75c34.208,-30.976 92.523,110.665 95.543,114.811c100.62,138.185 83.085,184.751 308.683,497.56c214.424,297.315 237.82,284.011 240.335,315.65c5.347,67.279 -56.113,-20.405 -59.05,-24.595Zm1128.909,-1803.138c-11.686,-38.934 -92.2,-307.184 -133.96,-490.143c-72.142,-316.076 -74.023,-317.116 -70.819,-320.329c32.498,-32.587 66.564,111.415 69.153,122.356c134.303,567.712 260.363,952.621 256.585,964.042c-25.058,75.738 -96.024,-206.488 -120.959,-275.926Zm442.036,2085.14c77.839,273.698 140.315,746.033 193.558,993.813c9.956,46.333 -28.637,50.837 -39.38,18.413c-32.723,-98.754 -134.903,-818.56 -196.992,-1023.332c-18.802,-62.012 3.57,-89.078 19.118,-76.346c5.608,4.592 8.341,6.83 23.696,87.452Zm-3523.85,-2253.443c-30.924,-144.266 -97.77,-298.047 -36.564,-265.113c10.194,5.485 162.234,532.712 163.482,537.81c121.726,497.27 148.188,489.533 151.895,533.775c3.489,41.634 -44.854,28.757 -66.53,-62.621c-40.051,-168.84 -194.527,-684.569 -212.283,-743.851Zm6820.104,-445.441c6.105,32 143.541,708.333 196.198,883.924c15.284,50.966 -27.327,50.161 -39.09,18.339c-29.554,-79.951 -253.653,-1079.218 -222.272,-1094.212c31.818,-15.203 30.955,50.273 45.109,99.902c13.107,45.957 14.804,44.799 20.056,92.046Zm-2517.607,2000.74c-13.341,-72.156 -12.091,-73.329 -7.542,-77.596c40.902,-38.371 82.762,224.601 86.029,245.125c18.594,116.814 35.91,111.928 77.535,335.753c93.741,504.057 138.919,530.12 95.7,532.592c-58.767,3.36 -182.504,-805.409 -251.722,-1035.874Zm-5981.32,-689.453c0.71,-9.744 7.972,-109.467 23.343,-119.876c52.965,-35.866 8.634,149.68 -14.226,289.398c-53.725,328.36 -68.761,323.747 -163.649,764.043c-1.233,5.72 -20.39,94.611 -46.99,56.045c-18.138,-26.298 -11.104,-29.72 77.106,-391.817c87.456,-359.006 72.89,-360.696 124.416,-597.793Zm13701.585,1017.165c103.733,207.182 234.939,749.303 250.999,815.659c39.256,162.199 89.845,284.998 30.642,261.325c-23.557,-9.42 -81.158,-296.79 -130.905,-476.875c-11.51,-41.668 -99.191,-359.073 -159.763,-516.197c-24.329,-63.111 -45.712,-113.043 9.027,-83.912Zm-1571.154,1317.994c-14.283,143.848 9.534,237.324 -60.627,732.22c-26.928,189.944 -30.909,279.453 -68.291,244.596c-41.12,-38.342 72.791,-298.683 80.307,-884.173c0.981,-76.43 14.782,-75.297 4.936,-151.937c-12.051,-93.81 23.434,-99.991 32.135,-89.078c8.052,10.099 1.439,63.513 11.54,148.371Zm-8025.902,-2131.305c-86.474,-169.964 -322.538,-801.768 -348.84,-872.162c-17.51,-46.864 18.607,-46.563 33.002,-29.615c26.135,30.768 173.494,446.003 187.412,485.219c92.022,259.301 232.606,524.169 227.96,549.969c-9.767,54.248 -69.621,-70.031 -99.534,-133.411Zm6102.862,1258.277c11.34,26.71 99.307,253.192 98.937,263.414c-6.617,183.077 -326.566,-777.11 -415.195,-1005.514c-21.477,-55.349 21.908,-59.106 34.352,-31.841c27.36,59.946 22.033,61.608 281.906,773.941Zm-3356.378,-1417.039c3.896,20.61 223.12,960.826 214.574,974.466c-52.957,84.525 -65.245,-189.5 -273.344,-1031.766c-21.326,-86.315 13.482,-77.983 18.419,-74.352c13.853,10.186 11.919,46.607 40.35,131.652Zm6133.775,1770.265c3.68,26.681 63.03,325.971 88.227,718.71c6.879,107.229 9.837,105.914 17.102,213.505c5.793,85.795 -39.368,36.634 -40.378,32.607c-12.784,-50.962 -39.059,-587.618 -81.261,-811.595c-21.391,-113.53 -13.321,-113.454 -41.144,-226.096c-20.261,-82.029 17.673,-73.832 23.197,-66.526c9.649,12.761 32.067,128.123 34.257,139.396Zm-12069.226,-2057.432c-13.85,-204.325 -39.731,-206.199 -27.474,-218.898c44.368,-45.97 82.825,294.178 88.89,432.095c9.788,222.579 -66.963,683.387 -83.127,688.678c-29.16,9.545 -40.39,-13.476 2.283,-261.119c70.265,-407.77 21.866,-627.79 19.428,-640.757Zm10253.888,2820.792c1.722,-6.753 20.458,-80.205 39.156,-77.813c19.981,2.556 18.194,15.15 -44.169,247.892c-68.957,257.352 -66.575,256.925 -167.601,503.98c-132.528,324.092 -150.543,339.829 -170.667,319.025c-28.158,-29.108 263.984,-573.166 343.281,-993.084Zm-3311.378,-2395.248c12.558,45.11 47.153,147.313 8.831,133.204c-27.421,-10.096 -41.788,-72.898 -126.246,-451.896c-92.804,-416.453 -95.886,-435.702 -102.02,-474.003c-10.113,-63.148 -67.903,-199.655 -15.163,-186.777c27.682,6.759 189.078,797.148 234.597,979.471Zm4234.387,-1730.825c222.118,207.657 561.605,983.876 545.638,1012.499c-19.724,35.355 -27.786,-4.324 -80.843,-108.031c-10.689,-20.892 -3.078,-23.154 -120.142,-267.612c-166.684,-348.079 -355.478,-605.746 -354.289,-611.864c0.409,-2.103 0.714,-1.851 9.636,-24.991Zm-1351.703,1450.102c46.9,83.636 177.07,798.344 249.594,1000.288c30.999,86.318 9.026,107.338 -10.413,88.546c-14.995,-14.495 -158.909,-530.678 -178.994,-685.471c-4.044,-31.169 -8.157,-30.121 -93.473,-381.594c-7.229,-29.781 6.213,-35.42 33.287,-21.769Zm-7948.643,1617.663c243.38,205.32 241.812,206.62 514.745,368.063c64.488,38.145 202.809,69.673 146.194,91.294c-28.407,10.849 -295.674,-124.442 -331.054,-149.625c-142.288,-101.279 -146.569,-94.561 -277.14,-210.361c-105.273,-93.364 -107.645,-89.192 -210.455,-186.772c-7.911,-7.509 -142.999,-135.724 -63.102,-120.862c11.962,2.225 10.457,5.144 94.879,89.218c61.5,61.247 66.805,54.501 125.933,119.045Zm-839.104,-1866.822c-32.084,-75.919 -266.502,-832.922 -261.363,-855.974c21.557,-96.699 70.038,108.977 72.611,119.892c22.103,93.772 119.001,365.193 123.232,381.152c119.76,451.804 169.254,467.215 169.453,550.585c0.309,129.669 -83.956,-143.787 -103.932,-195.654Zm2502.432,-1009.007c-0.852,-5.275 -10.709,-66.334 7.405,-66.376c14.971,-0.035 24.601,32.782 25.599,36.185c53.735,183.118 61.122,179.506 113.863,364.101c178.703,625.469 218.849,616.152 212.642,672.213c-13.713,123.857 -139.001,-300.07 -158.561,-348.86c-56.313,-140.466 -193.78,-628.65 -200.948,-657.262Zm-3433.418,1003.866c117.055,465.489 54.857,1015.989 -0.854,957.449c-13.17,-13.839 50.816,-482.884 3.998,-725.671c-23.657,-122.684 -19.342,-122.054 -45.149,-244.021c-15.055,-71.151 -49.01,-159.4 -11.765,-151.947c13.553,2.712 19.235,3.849 53.77,164.19Zm6912.59,492.386c-37.698,-140.345 -47.452,-136.142 -81.235,-277.431c-94.273,-394.27 -103.609,-391.934 -106.761,-427.004c-5.881,-65.437 -83.98,-284.917 -62.745,-303.468c7.297,-6.375 33.964,-17.464 59.161,105.685c43.609,213.134 95.884,346.958 126.31,487.085c101.809,468.887 143.53,471.754 116.274,502.76c-27.797,31.62 -46.146,-67.251 -51.004,-87.625Zm-1632.766,1418.98c-189.934,-701.305 -170.332,-705.28 -191.557,-764.664c-62.083,-173.694 -68.619,-284.678 -31.835,-256.587c10.986,8.39 285.139,1067.558 270.957,1092.137c-21.266,36.855 -45.945,-64.252 -47.564,-70.886Zm7507.63,-410.562c-66.286,-187.452 -75.934,-184.59 -76.08,-201.846c-0.954,-112.615 66.479,53.747 69.243,60.568c99.918,246.506 87.935,250.589 96.915,271.861c91.651,217.112 69.322,223.266 147.166,445.423c7.414,21.159 86.138,245.829 69.659,271.453c-29.295,45.553 -56.329,-115.448 -86.025,-194.776c-50.852,-135.846 -40.327,-137.526 -87.156,-276.153c-64.105,-189.771 -68.306,-187.293 -133.723,-376.53Zm-2685.525,1973.105c136.654,-455.411 140.039,-628.444 161.644,-646.555c50.106,-42.004 18.366,97.004 16.468,105.318c-34.903,152.862 -31.183,153.474 -35.204,166.479c-41.944,135.632 -25.287,138.383 -54.138,230.882c-154.602,495.667 -168.865,519.29 -193.357,559.854c-71.62,118.619 -32.642,-26.47 -31.341,-29.667c100.886,-247.984 81.483,-307.771 135.928,-386.311Zm915.34,-4505.215c-2.166,-3.228 -23.134,-34.485 -15.778,-45.958c22.032,-34.363 106.246,119.642 135.183,158.943c180.918,245.71 415.649,797.383 408.375,829.455c-13.322,58.742 -52.358,-37.969 -54.437,-43.121c-136.643,-338.531 -177.126,-376.97 -207.671,-445.298c-106.535,-238.314 -124.702,-226.775 -265.673,-454.021Zm-2166.803,2395.155c-8.01,-16.864 -76.74,-161.57 -84.85,-217.398c-2.814,-19.37 22.428,-40.345 40.357,2.654c140.41,336.747 143.72,335.119 153.883,365.145c125.539,370.875 272.81,615.815 257.158,650.845c-26.325,58.915 -102.832,-163.559 -117.43,-193.472c-67.314,-137.944 -155.957,-381.596 -249.118,-607.774Zm-9765.569,-1118.329c6.342,-29.661 3.634,-30.339 11.887,-41.845c53.225,-74.204 24.975,79.165 -10.325,331.671c-18.185,130.083 -120.057,721.952 -136.818,761.074c-109.138,254.745 113.102,-767.995 135.256,-1050.9Zm3585.431,-477.621c107.837,257.901 128.364,248.401 174.001,402.348c12.394,41.81 167.547,354.164 234.753,501.156c5.361,11.725 72.445,115.389 26.136,113.128c-34.126,-1.667 -501.689,-1003.661 -466.123,-1034.437c18.081,-15.646 18.94,-2.245 31.233,17.805Zm1724.34,2461.028c64.627,329.929 133.255,498.544 68.503,459.073c-32.991,-20.11 -67.754,-338.892 -218.362,-914.747c-49.171,-188.01 -27.197,-199.021 -12.221,-194.646c27.8,8.121 151.105,597.839 162.079,650.321Zm1647.996,-1389.027c31.51,144.659 174.204,621.781 76.229,439.21c-20.642,-38.466 -101.416,-347.505 -109.376,-377.96c-51.64,-197.575 -42.854,-198.891 -97.974,-395.1c-84.865,-302.089 -70.366,-325.272 -46.117,-316.986c30.845,10.539 18.093,95.26 127.158,437.458c12.826,40.243 36.997,165.056 50.08,213.378Zm-3434.264,696.234c3.044,3.047 58.728,58.782 8.631,53.136c-32.583,-3.673 -117.409,-127.186 -286.109,-308.989c-0.798,-0.86 -400.345,-530.96 -393.37,-589.786c8.253,-69.61 112.511,131.262 134.973,161c223.525,295.943 201.332,312.431 451.596,586.071c34.566,37.795 27.543,42.406 77.703,90.308c2.545,2.431 4.031,5.829 6.577,8.26Zm9583.481,1520.967c-4.306,2.713 -1.694,11.326 -6,14.039c-31.724,19.992 -32.248,-12.99 -88.475,-460.3c-13.498,-107.381 -58.017,-305.086 -68.328,-395.727c-1.706,-15 -3.393,-13.29 -41.422,-184.11c-1.337,-6.006 -22.424,-100.725 13.485,-75.727c33.474,23.303 196.946,929.134 190.74,1101.824Zm-1419.279,-2492.936c1.25,6.423 42.45,218.101 -22.483,78.639c-23.966,-51.473 -152.416,-757.966 -259.844,-1022.122c-28.292,-69.568 9.528,-60.354 13.339,-57.558c76.089,55.832 249.18,934.27 268.988,1001.041Zm-1159.53,-217.054c46.393,135.37 101.441,343.461 109.405,373.566c78.689,297.459 71.065,298.498 165.037,591.791c28.029,87.481 42.265,93.846 21.825,106.538c-36.945,22.941 -46.242,-84.294 -106.815,-241.56c-5.962,-15.48 3.286,-18.138 -61.925,-197.897c-13.453,-37.084 -3.673,-39.142 -130.359,-475.57c-13.851,-47.715 -53.636,-245.706 2.831,-156.869Zm-9535.599,-355.461c-18.686,-30.352 -69.838,-211.837 -58.755,-223.289c37.261,-38.507 70.623,159.752 82.023,187.406c37.174,90.181 21.533,94.458 60.955,182.939c99.291,222.852 68.714,709.481 30.483,734.64c-41.206,27.117 -23.349,-100.584 -22.112,-109.429c56.097,-401.16 -48.272,-603.351 -92.594,-772.268Zm-855.467,192.66c7.088,-27.466 5.81,-28.05 7.655,-29.663c72.5,-63.373 -8.038,127.348 -4.679,442.392c0.679,63.683 -22.565,181.127 -27.893,213.294c-6.16,37.191 -76.16,459.781 -119.52,455.813c-11.999,-1.098 -20.502,-7.562 16.331,-149.729c35.001,-135.096 97.93,-498.892 92.947,-535.002c-10.617,-76.936 0.461,-75.741 6.489,-152.914c9.603,-122.946 9.517,-121.763 28.671,-244.191Zm4348.93,-315.499c-221.406,-473.161 -262.888,-797.367 -256.773,-816.202c31.521,-97.093 53.355,161.844 155.124,461.883c82.02,241.814 120.354,281.752 169.628,396.195c6.559,15.235 76.802,178.379 61.398,198.034c-34.769,44.365 -27.588,-23.916 -129.377,-239.91Zm60.639,2679.479c7.738,53.536 49.392,341.74 -33.685,675.313c-5.386,21.628 -46.646,31.641 -36.939,-32.702c27.006,-179.014 93.894,-465.142 -17.283,-852.773c-3.452,-12.036 2.511,-12.781 -22.499,-154.887c-0.795,-4.518 -21.416,-121.691 21.2,-53.274c34.711,55.725 1.201,64.583 89.205,418.323Zm3189.481,-2922.181c-29.244,-46.835 -59.795,-231.456 -55.353,-236.068c31.19,-32.381 49.3,55.809 50.589,62.085c58.206,283.455 122.906,360.608 142.539,444.588c86.918,371.78 95.792,369.668 114.944,532.487c14.73,125.224 -40.742,2.407 -41.308,-0.849c-59.018,-339.935 -74.135,-347.074 -85.793,-394.665c-50.799,-207.39 -65.152,-201.565 -125.619,-407.577Zm-2380.449,2302.605c-73.187,-136.777 -124.65,-422.49 -122.68,-428.827c38.098,-122.519 15.254,49.089 161.979,424.273c23.046,58.931 120.833,499.832 125.932,641.556c1.146,31.859 -37.992,25.352 -44.318,-17.189c-46.594,-313.352 -51.363,-310.818 -120.913,-619.814Zm1785.735,-762.816c-26.156,-84.532 -17.734,-85.427 -35.93,-172.562c-47.298,-226.494 -53.125,-224.744 -56.724,-244.498c-31.652,-173.736 -140.069,-424.443 -147.749,-456.13c-44.863,-185.102 -41.328,-191.693 -26.451,-197.397c61.875,-23.725 -2.445,48.906 154.855,424.316c33.855,80.798 124.591,477.989 136.164,550.206c13.436,83.841 18.82,135.043 -24.164,96.065Zm4134.601,1733.358c15.337,-64.503 14.561,-100.192 22.583,-105.269c45.685,-28.912 21.25,85.585 19.662,93.024c-34.79,163.018 -21.545,173.146 -29.744,213.809c-2.681,13.295 -33.016,435.322 -218.786,776.724c-2.036,3.742 -52.587,24.823 -22.635,-48.205c76.399,-186.277 80.217,-183.763 135.488,-377.452c86.281,-302.363 40.435,-310.379 93.431,-552.632Zm76.385,-2497.609c-31.951,-89.722 -124.618,-429.919 -140.338,-613.609c-13.957,-163.089 42.27,11.598 42.87,15.186c41.362,247.436 48.862,244.61 104.881,488.727c22.455,97.854 57.816,148.834 62.902,167.284c43.599,158.171 51.466,155.029 53.739,169.036c18.715,115.32 46.874,178.851 31.435,192.537c-48.027,42.575 -57.465,-203.004 -155.488,-419.162Zm2410.184,802.526c116.257,311.644 149.509,297.087 259.75,611.088c11.48,32.7 160.598,457.437 85.505,424.687c-40.729,-17.763 8.033,-45.068 -167.196,-529.662c-29.637,-81.96 -24.878,-82.795 -71.26,-156.495c-9.848,-15.648 -155.852,-341.273 -152.038,-360.571c0.722,-3.653 10.736,-46.267 45.24,10.953Zm-1540.575,1269.669c11.637,315.001 47.087,311.627 44.462,625.796c-0.299,35.744 -2.897,346.693 -50.328,443.977c-7.281,14.935 -37.154,7.424 -33.004,-32.104c3.462,-32.981 44.235,-204.847 42.425,-549.364c-0.237,-45.041 -58.563,-519.165 -41.869,-534.177c3.555,-3.197 28.098,-25.269 38.315,45.871Zm-6117.846,-1444.57c-16.914,-29.1 -85.432,-280.092 -24.84,-232.006c7.979,6.332 93.548,335.374 107.346,364.658c95.918,203.569 189.425,715.116 163.825,724.611c-66.902,24.815 29.965,-63.07 -246.33,-857.263Zm2310.788,-2225.075l30.518,0c40.891,220.954 45.94,218.306 99.748,436.45c44.077,178.695 20.343,183.856 103.569,424.324c53.411,154.322 47.356,297.03 5.742,186.618c-7.647,-20.29 -4.638,-20.984 -77.026,-259.872c-2.655,-8.762 -115.308,-514.686 -133.916,-580.912c-4.024,-14.32 -28.21,-100.397 -34.806,-182.642c-0.659,-8.223 6.831,-15.743 6.172,-23.967Zm1747.477,4974.843c269.077,-380.445 342.077,-901.498 405.062,-848.496c20.819,17.519 -252.297,676.782 -258.034,689.023c-63.141,134.724 -210.634,330.957 -277.667,322.232c-74.104,-9.645 46.839,-72.863 130.64,-162.759Zm-8362.247,-4498.659c6.724,13.228 -0.684,15.956 69.902,171.809c20.274,44.764 261.13,767.006 154.26,653.917c-13.463,-14.247 -60.932,-302.066 -258.977,-806.999c-7.891,-20.118 -98.753,-251.78 -66.429,-261.827c53.57,-16.652 34.498,104.703 101.244,243.101Zm2120.742,1599.446c-61.766,-112.144 -129.651,-260.247 -204.867,-359.596c-26.109,-34.485 -22.958,-35.309 -89.34,-168.895c-85.326,-171.709 -194.003,-455.479 -173.396,-473.795c4.885,-4.343 27.034,-24.029 53.271,61.952c67.895,222.5 158.48,385.403 193.745,474.335c26.305,66.337 77.293,114.782 90.479,137.948c84.617,148.652 99.81,181.646 107.347,198.013c20.366,44.227 107.577,171.583 22.761,130.038Zm8255.813,-1192.321c-8.239,-10.518 -69.43,-88.64 -88.289,-141.76c-54.266,-152.851 -320.221,-586.446 -208.195,-507.273c16.716,11.814 216.695,419.423 246.171,488.949c18.069,42.622 172.987,269.435 230.536,489.368c4.82,18.422 -30.44,57.774 -51.702,-14.567c-48.029,-163.414 -64.453,-156.253 -128.521,-314.717Zm-611.308,798.373c10.479,21.625 90.854,282.266 27.418,242.939c-24.768,-15.355 -28.614,-145.372 -115.397,-420.175c-50.725,-160.623 -40.388,-269.101 -118.838,-458.727c-3.631,-8.776 -57.761,-183.233 -54.114,-197.362c39.135,-151.63 259.655,826.98 260.932,833.326Zm-7156.044,2248.066c-23.919,501.558 -33.94,523.005 -53.126,564.069c-11.917,25.507 -37.239,10.32 -34.785,-15.193c3.003,-31.214 20.767,-154.144 22.701,-167.53c5.503,-38.083 -10.545,-153.494 16.351,-273.854c12.217,-54.674 12.603,-371.475 -15.207,-566.483c-10.415,-73.034 -19.802,-79.638 -2.443,-85.743c34.397,-12.096 75.303,242.524 66.508,544.734Zm8620.908,-843.881c36.869,132.018 34.211,131.793 71.508,262.767c33.85,118.87 96.195,315.1 118.467,504.362c36.262,308.139 26.977,322.982 1.174,322.576c-19.976,-0.314 -24.604,-7.95 -39.767,-246.539c-25.101,-394.976 -153.434,-602.578 -189.275,-839.118c-0.457,-3.014 -4.283,-36.32 37.892,-4.048Zm-2440.786,-696.303c-10.215,-28.036 -9.775,-28.028 -11.033,-30.279c-131.979,-236.282 -202.291,-707.092 -194.622,-718.653c37.899,-57.135 49.31,106.682 96.805,303.648c9.345,38.754 79.168,296.888 99.31,337.772c51.596,104.727 40.475,108.554 94.724,211.994c3.142,5.991 63.823,198.704 63.758,199.809c-0.599,10.182 -28.78,42.46 -51.707,-30.68c-43.526,-138.851 -55.902,-133.163 -97.235,-273.611Zm-7103.438,509.916c-70.311,-41.232 -108.651,-120.483 -168.948,-158.713c-17.096,-10.839 -180.767,-170.555 -196.234,-185.648c-41.664,-40.657 -31.518,-49.761 -165.688,-200.112c-11.707,-13.119 -8.298,-15.393 -120.242,-183.984c-20.162,-30.364 -89.111,-162.407 -33.431,-139.688c33.385,13.622 184.885,369.605 436.831,575.003c11.287,9.201 6.384,14.032 131.651,125.704c10.989,9.796 8.547,9.857 127.257,132.916c15.796,16.375 8.068,26.421 6.652,28.262c-3.844,4.997 -14.003,1.263 -17.847,6.26Zm-155.017,655.786c2.575,0.901 115.77,54.597 3.086,33.956c-310.629,-56.901 -485.41,-195.236 -784.62,-401.226c-103.657,-71.362 -212.561,-219.885 -114.161,-162.183c25.92,15.2 461.399,441.488 895.695,529.454Zm6701.096,-85.679c-66.383,-50.548 -70.917,-136.334 -97.045,-178.133c-73.978,-118.35 -241.738,-444.922 -279.943,-599.446c-1.199,-4.849 -41.167,-89.719 -71.902,-227.563c-7.2,-32.29 26.471,-36.417 39.706,-1.556c12.116,31.913 87.133,266.666 94.558,289.903c31.246,97.779 98.322,237.677 107.991,257.842c53.741,112.085 90.572,128.869 189.23,370.213c23.434,57.327 45.166,62.08 17.405,88.74Zm-149.319,573.408c-454.56,165.595 -736.981,61.79 -796.893,39.769c-15.276,-5.615 -234.341,-86.133 -170.133,-111.558c76.693,-30.369 126.088,141.045 566.695,119.51c299.045,-14.616 541.345,-159.137 520.8,-99.833c-2.893,8.352 -110.628,48.45 -120.469,52.112Zm-6160.011,178.039c-8.975,41.014 -67.488,308.425 -211.877,480.135c-10.877,12.936 -64.846,18.641 -26.57,-40.863c223.256,-347.075 202.19,-415.7 282.583,-974.382c0.776,-5.389 11.982,-83.265 35.285,-58.202c6.297,6.773 -15.096,275.484 -79.42,593.312Zm6284.338,5.553c-113.659,94.669 -409.591,238.835 -691.743,243.901c-99.151,1.78 -243.953,25.65 -200.296,-23.989c46.3,-52.644 277.766,47.969 731.521,-157.88c163.135,-74.008 347.812,-270.829 296.153,-174.83c-11.11,20.646 -124.291,104.403 -135.635,112.798Zm-8679.667,-3254.485c-8.31,-20.453 -45.177,-111.19 -86.987,-261.886c-12.315,-44.389 30.81,-36.584 42.149,1.272c114.177,381.179 114.843,380.936 117.003,394.199c37.422,229.824 48.945,226.525 97.392,368.779c36.922,108.415 70.684,316.676 67.846,319.377c-55.87,53.158 -26.449,-88.816 -127.976,-365.255c-81.264,-221.266 -40.026,-231.07 -109.427,-456.487Zm2715.978,2711.772c0.928,-11.88 11.346,-145.196 13.067,-148.379c43.865,-81.142 22.793,182.601 22.668,195.261c-4.417,448.477 -141.293,907.412 -142.189,908.165c-82.202,69.01 41.189,-336.171 42.334,-342.498c64.961,-359.097 64.284,-563.278 64.121,-612.549Zm824.057,78.898c-18.162,-116.551 -19.811,-169.853 -20.271,-184.711c-7.437,-240.402 -42.027,-233.847 -85.36,-471.936c-8.123,-44.63 37.512,-32.043 44.91,15.836c35.552,230.094 70.495,223.822 78.085,456.412c6.333,194.085 73.776,366.724 74.958,442.475c2.818,180.583 22.148,180.926 15.258,194.973c-45.925,93.62 -37.263,-164.279 -107.58,-453.048Zm5142.955,388.229c-268.262,170.066 -321.382,128.342 -604.15,172.723c-146.288,22.96 -145.499,11.004 -288.962,-3.853c-13.409,-1.389 -111.881,4.602 -114.23,-23.213c-4.947,-58.574 211.86,3.404 266.345,-0.453c490.394,-34.71 578.457,-87.883 621.747,-114.021c201.044,-121.392 210.35,-134.14 217.665,-115.822c0.853,2.137 9.797,10.293 -98.415,84.64Zm-6134.93,20.383c30.89,-100.161 30.121,-99.007 62.194,-199.175c24.466,-76.41 25.936,-387.985 39.329,-407.805c2.455,-3.634 40.284,-30.751 31.93,44.557c-27.966,252.119 -2.062,254.854 -44.191,398.189c-57.711,196.347 -54.457,195.597 -92.242,396.05c-9.41,49.922 -93.606,281.687 -98.565,285.175c-21.194,14.906 -35.896,-35.78 -2.426,-120.214c76.096,-191.97 57.273,-196.441 103.971,-396.778Zm5969.873,-66.731c187.116,-86.752 185.492,-90.434 202.746,-95.283c36.488,-10.254 21.694,36.982 -93.128,85.02c-323.185,135.21 -478.59,145.872 -716.138,133.665c-146.611,-7.534 -372.002,-90.066 -273.826,-109.822c96.294,-19.377 229.798,196.854 880.347,-13.581Zm393.139,-1284.752c-27.716,-46.167 -297.674,-766.734 -290.975,-780.583c27.377,-56.596 102.502,166.889 107.917,182.999c241.795,719.304 320.976,769.191 319.42,837.798c-2.751,121.28 -36.797,-21.732 -136.362,-240.214Zm-5630.725,417.555c46.88,209.623 46.852,208.658 96.63,417.438c82.518,346.096 76.758,448.715 57.267,655.051c-4.425,46.85 -45.45,41.322 -42.759,0.798c29.924,-450.615 -17.506,-447.282 -93.156,-807.557c-54.487,-259.491 -60.819,-265.417 -42.213,-278.069c7.212,-4.904 16.392,-0.229 17.65,0.412c6.824,3.475 -0.823,8.157 6.579,11.927Zm-3448.819,-2193.792c76.296,255.773 189.842,397.613 212.181,855.698c2.564,52.571 -37.824,54.107 -42.718,17.116c-24.965,-188.682 36.292,-233.34 -178.806,-778.718c-7.808,-19.797 -66.215,-211.877 -71.83,-230.344c-1.363,-4.483 -25.066,-82.435 11.025,-57.523c19.517,13.471 65.691,177.9 70.148,193.773Zm10590.176,2915.08c9.58,-107.25 6.275,-108.617 13.573,-116.138c41.755,-43.035 20.987,19.927 19.712,162.848c-1.848,207.225 -12.806,205.589 -28.794,411.79c-16.291,210.107 -84.407,538.481 -86.724,538.828c-96.255,14.448 63.593,-250.828 82.233,-997.328Zm-6881.864,-760.048c-11.267,-61.37 -29.654,-153.687 -29.504,-155.744c11.67,-159.384 34.485,32.407 77.286,185.711c33.236,119.046 191.416,878.976 169.529,893.237c-62.437,40.682 -63.958,-340.358 -217.311,-923.204Zm7705.75,517.751c-1.403,-6.208 -16.595,-73.405 -16.863,-77.753c-11.741,-190.275 -37.883,-257.393 9.396,-213.384c1.136,1.057 58.076,356.031 54.489,412.148c-22.188,347.114 42.127,346.58 17.867,594.802c-3.162,32.348 12.756,71.151 13.304,106.816c0.8,52.061 -48.572,13.434 -50.008,-76.235c-2.218,-138.54 1.867,-137.363 -14.415,-274.909c-27.849,-235.263 11.777,-236.383 -13.771,-471.486Zm-11231.244,-3088.482c41.485,102.474 190.78,580.206 206.622,630.898c127.141,406.841 141.04,436.378 106.159,430.105c-22.999,-4.136 -17.673,-14.308 -156.524,-459.064c-180.622,-578.557 -218.66,-643.998 -162.328,-613.253c3.757,2.05 2.314,9.264 6.071,11.314Zm6073.755,833.642c-4.054,-8.414 -21.263,-44.131 -32.641,-112.097c-26.53,-158.468 -115.795,-380.048 -90.975,-405.82c32.292,-33.53 48.975,109.177 59.568,145.735c142.426,491.531 132.705,493.854 145.709,536.375c55.982,183.059 40.251,186.826 103.897,366.785c11.382,32.182 -16.667,45.836 -36.017,11.041c-21.861,-39.312 -38.06,-68.44 -149.541,-542.018Zm-3570.736,2621.259c-9.487,49.985 -86.249,454.429 -195.762,605.088c-18.081,24.874 -55.363,12.342 -37.276,-24.809c122.593,-251.808 144.893,-247.028 213.851,-702.803c54.323,-359.044 41.191,-386.506 69.513,-375.129c25.042,10.059 -14.968,258.227 -50.325,497.654Zm10299.065,-1775.316c96.291,178.172 58.382,229.559 164.942,444.605c62.941,127.02 65.527,124.526 107.645,259.955c6.067,19.509 68.709,118.663 24.984,115.07c-28.783,-2.365 -83.093,-174.867 -88.145,-190.913c-32.166,-102.166 -123.656,-199.877 -182.956,-472.288c-26.733,-122.809 -232.753,-426.176 -155.533,-411.365c21.541,4.132 70.26,148.864 129.063,254.936Zm-10008.925,1802.199c34.781,-145.064 43.428,-397.068 49.196,-440.644c11.913,-89.995 -24.581,-187.027 4.267,-197.208c11.768,-4.153 34.884,-5.552 36.898,151.569c3.32,258.956 -138.632,969.713 -162.632,988.103c-78.151,59.885 32.385,-224.601 72.27,-501.82Zm6202.562,1062.965l-15.259,0c-41.06,-66.236 52.655,-149.395 114.83,-300.534c81.076,-197.086 78.264,-197.49 187.012,-380.505c57.121,-96.131 113.329,-407.612 158.165,-382.68c22.351,12.429 -111.351,374.827 -125.838,399.095c-148.78,249.232 -136.199,258.412 -178.145,368.646c-53.209,139.834 -113.387,179.381 -140.765,295.978Zm-2082.391,-4902.513c-3.769,-9.672 -38.837,-99.674 -36.071,-124.636c2.285,-20.625 28.967,-17.569 36.255,2.771c4.236,11.821 41.151,114.836 46.298,149.983c21.658,147.876 35.993,144.228 60.907,290.105c103.962,608.716 150.038,601.76 139.915,654.324c-11.764,61.083 -49.156,-42.002 -51.053,-47.233c-38.797,-106.957 -181.953,-851.006 -196.251,-925.315Zm-8713.014,1413.606c2.022,-11.776 24.247,-141.22 28.057,-146.689c2.377,-3.412 45.081,-31.883 29.322,42.922c-73.062,346.828 -67.19,347.252 -100.403,439.91c-70.955,197.951 -77.847,355.705 -105.964,443.268c-55.253,172.069 -43.527,176.352 -55.826,185.82c-29.176,22.459 -37.032,-38.405 -7.87,-125.689c92.865,-277.947 61.801,-342.075 140.431,-533.472c59.941,-145.903 30.849,-152.972 72.252,-306.07Zm14037.69,1586.066c140.254,521.376 156.858,566.944 116.96,546.727c-41.915,-21.239 -48.18,-163.341 -177.231,-618.435c-56.73,-200.055 -202.733,-598.811 -102.804,-442.212c6.243,9.783 5.001,10.197 163.076,513.921Zm-7858.061,-147.316c-5.163,-20.63 -38.869,-155.313 -46.115,-261.795c-14.512,-213.262 -107.048,-400.626 -93.462,-441.118c24.083,-71.774 45.931,38.561 46.926,43.587c45.768,231.136 68.765,225.758 94.612,459.884c29.686,268.899 171.133,578.995 138.118,602.321c-41.928,29.624 -39.554,-93.155 -140.079,-402.88Zm686.688,-1327.705c-14.797,-59.381 -14.988,-58.938 -15.981,-64.131c-4.89,-25.58 33.11,-43.846 47.132,18.162c79.526,351.674 89.341,349.235 92.006,380.433c28.409,332.596 82.998,332.915 116.445,486.793c40.1,184.482 55.093,181.761 52.207,197.877c-2.659,14.849 -36.629,26.666 -69.939,-90.505c-39.083,-137.479 -33.611,-138.201 -78.118,-274.102c-59.976,-183.133 -28.452,-269.219 -143.753,-654.526Zm1709.047,-1113.643c-49.735,-196.494 -126.943,-399.132 -67.18,-386.426c4.249,0.903 103.868,354.972 113.499,461.111c22.757,250.801 91.702,347.21 118.918,471.347c37.197,169.662 51.573,167.124 48.563,181.881c-2.744,13.451 -45.412,25.595 -82.209,-150.629c-44.769,-214.403 -93.781,-203.745 -131.591,-577.284Zm-2350.016,1964.776c46.993,174.41 140.476,575.187 152.171,625.327c6.35,27.225 74.902,216.159 10.928,151.436c-39.158,-39.617 -108.774,-430.788 -157.956,-576.074c-8.925,-26.366 -3.924,-27.34 -85.332,-337.324c-40.8,-155.357 -31.226,-161.67 -18.423,-165.29c28.366,-8.018 26.207,75.533 98.611,301.924Zm4531.701,-1.325c73.353,177.74 186.057,409.635 115.977,366.131c-20.288,-12.594 -7.312,-21.367 -118.084,-274.139c-69.182,-157.868 -56.647,-298.482 -153.84,-487.875c-9.837,-19.169 -121.827,-321.516 -94.388,-329.691c45.299,-13.496 37.931,101.96 143.603,343.785c12.699,29.061 61.537,140.823 106.731,381.79Zm1236.384,2181.522c3.007,-11.736 24.551,-95.824 27.136,-148.985c7.275,-149.616 10.54,-148.157 49.823,-292.973c58.446,-215.458 38.622,-217.987 60.232,-486.728c3.828,-47.605 33.496,-24.375 36.13,-13.511c1.092,4.504 -21.868,364.652 -25.713,381.357c-50.602,219.833 -62.716,216.513 -85.367,441.209c-0.064,0.636 -54.823,303.578 -70.23,305.509c-14.768,1.85 -45.634,-6.022 7.989,-185.876Zm-1541.162,-2297.711c-20.525,-52.584 -137.472,-410.205 -131.201,-416.23c67.12,-64.487 181.229,607.175 396.397,1009.056c2.548,4.76 37.058,69.215 1.46,67.473c-35.987,-1.76 -163.335,-324.868 -266.657,-660.3Zm-5844.361,-1105.888c35.967,55.903 152.566,309.436 85.158,261.675c-26.088,-18.484 -441.91,-1010.901 -423.834,-1031.748c42.237,-48.712 122.471,252.775 338.675,770.073Zm3204.796,281.217c-25.392,-101.28 -27.903,-99.207 -31.557,-140.129c-23.726,-265.736 -51.879,-259.485 -108.285,-519.708c-11.163,-51.499 29.656,-43.862 34.376,-27.133c79.772,282.686 107.145,488.791 112.872,531.912c26.076,196.335 164.065,536.526 148.674,562.796c-33.848,57.773 -47.21,-75.657 -156.081,-407.738Zm-7781.927,284.106c85.557,-471.186 87.035,-477.21 99.546,-478.047c31.808,-2.128 13.356,17.828 -8.644,162.401c-71.151,467.56 -80.751,464.292 -181.751,926.666c-5.96,27.285 -52.578,11.564 -30.201,-75.046c87.169,-337.381 103.333,-479.864 121.05,-535.974Zm1601.792,-1123.471c-28.207,-87.149 -29.019,-87.24 -28.195,-95.135c10.953,-104.952 60.494,84.911 62.771,93.637c46.691,178.938 243.137,671.323 257.448,960.944c4.131,83.603 -38.782,33.67 -39.536,29.783c-12.42,-64.057 -14.037,-160.424 -15.391,-167.666c-60.844,-325.505 -197.746,-645.365 -237.098,-821.564Zm11459.626,2701.053c-24.487,-177.994 -27.2,-178.839 -22.469,-185.211c36.331,-48.934 44.133,109.272 58.199,182.923c56.012,293.296 38.788,295.385 43.779,320.802c23.361,118.986 54.634,591.55 50.676,595.203c-74.144,68.432 -35.588,-390.144 -130.184,-913.717Zm-4455.877,-3006.965c-3.93,-12.365 -44.651,-140.494 -47.789,-154.98c-19.851,-91.631 -48.218,-196.482 -6.33,-165.997c11.81,8.595 244.913,918.938 274.545,1006.31c1.81,5.338 50.357,148.481 -8.779,69.914c-50.418,-66.984 -208.37,-737.831 -211.647,-755.248Zm2563.741,3871.018c92.502,-304.288 87.503,-305.609 103.817,-327.752c149.06,-202.323 -325.34,1042.274 -371.37,1046.661c-12.336,1.176 -35.444,-9.468 28.588,-152.236c125.914,-280.741 119.623,-281.788 238.964,-566.673Zm-6454.842,-2915.758c56.36,103.788 17.312,110.994 10.032,106.496c-20.228,-12.497 -4.04,-23.005 -123.275,-270.436c-65.046,-134.981 -55.64,-249.342 -136.108,-427.602c-60.812,-134.717 -54.338,-135.93 -106.932,-274.516c-2.095,-5.52 -130.293,-343.326 8.79,-73.272c12.539,24.346 0.781,28.972 126.634,318.028c106.154,243.81 55.399,261.437 171.942,501.456c28.462,58.616 18.285,62.038 48.916,119.845Zm-4943.187,91.783c7.127,-4.077 -0.313,-8.334 6.303,-12.119c1.218,-0.697 6.326,-3.619 17.481,-1.487c11.11,2.124 15.4,7.745 -13.294,140.762c-62.246,288.555 -44.861,290.831 -107.671,579.588c-17.542,80.646 -123.592,355.122 -136.939,369.473c-67.152,72.203 2.295,-104.959 5.611,-113.416c186.349,-475.381 137.089,-664.027 228.509,-962.8Zm14037.489,1313.669c118.525,326.828 55.917,342.504 164.441,672.568c7.5,22.81 1.635,23.884 69.442,291.999c44.489,175.913 -43.661,-11.436 -44.904,-15.014c-39.572,-113.98 -15.378,-119.217 -60.698,-259.619c-95.962,-297.292 -39.491,-310.342 -105.659,-503.907c-98.462,-288.035 -101.895,-305.278 -76.647,-307.889c0.209,-0.022 18.556,-11.216 54.025,121.862Zm-2701.126,2051.694c-12.357,27.594 -91.762,235.129 -105.544,167.066c-12.505,-61.76 209.102,-385.386 323.296,-767.577c31.704,-106.108 46.625,-101.922 56.434,-211.99c8.622,-96.749 42.85,-85.474 46.992,-74.019c4.274,11.82 -30.825,353.183 -321.179,886.52Zm-3173.585,-3851.874c112.512,419.853 69.151,428.598 181.686,810.099c10.158,34.437 -25.778,43.078 -39.266,2.219c-86.174,-261.05 -113.604,-661.402 -238.694,-1024.433c-25.47,-73.918 4.76,-70.306 9.612,-67.769c7.428,3.885 54.682,86.509 86.662,279.884Zm6179.837,2060.03c112.774,541.125 142.778,581.309 98.46,568.43c-36.174,-10.513 -98.969,-505.337 -203.255,-808.312c-40.139,-116.615 -31.87,-118.022 -84.204,-231.557c-2.088,-4.529 -65.024,-141.064 14.035,-60.734c41.365,42.03 84.176,210.784 89.026,229.901c34.642,136.552 46.099,131.801 85.938,302.273Zm-8620.965,293.971c-46.335,-255.034 -51.46,-253.88 -55.282,-276.078c-41.608,-241.627 -68.381,-240.449 -57.111,-258.368c22.299,-35.456 63.692,-3.076 144.302,503.281c40.208,252.57 43.909,251.893 45.098,274.082c16.375,305.372 80.028,318.727 35.133,345.933c-38.84,23.537 -55.088,-183.045 -112.14,-588.85Zm6820.679,427.419c-0.889,-8.522 -10.249,-98.277 -4.738,-106.994c89.322,-141.275 13.532,653.121 -38.72,851.796c-54.226,206.18 -33.424,255.939 -56.261,275.267c-89.93,76.111 121.042,-621.605 99.719,-1020.069Zm-8361.67,-1613.281c-29.706,-33.99 -106.27,-121.596 -303.842,-475.487c-11.676,-20.915 -131.213,-235.03 -140.585,-264.359c-7.561,-23.661 25.571,-39.848 57.303,15.15c84.314,146.139 76.711,148.959 158.52,295.562c280.709,503.041 397.926,562.256 392.395,607.893c-6.484,53.496 -103.11,-95.537 -163.791,-178.759Zm611.703,-502.874c-34.027,-60.845 -46.819,-78.913 -51.428,-85.423c-71.724,-101.301 -359.153,-956.91 -358.455,-960.419c12.036,-60.539 79.705,81.472 120.808,231.648c58.391,213.335 190.466,524.146 246.401,671.32c7.161,18.84 138.39,195.492 42.674,142.874Zm-1085.062,-134.229c115.804,170.703 148.274,363.123 411.377,717.444c61.908,83.372 55.108,87.262 129.163,158.993c57.331,55.531 30.929,72.906 18.097,68.065c-9.351,-3.528 -118.851,-115.692 -120.254,-117.709c-271.7,-390.6 -251.864,-401.469 -477.404,-820.937c-1.48,-2.752 -17.508,-32.562 3.193,-38.928c14.817,-4.557 33.927,29.666 35.829,33.072Zm9765.336,1957.609c41.752,258.189 21.054,385.677 51.375,779.357c5.251,68.182 -30.198,34.883 -31.13,32.44c-34.179,-89.63 7.687,-318.282 -75.459,-963.094c-2.313,-17.939 -60.915,-159.213 -28.361,-167.908c45.338,-12.108 81.049,307.702 83.574,319.204Zm-11368.108,-3087.484c14.347,34.923 97.009,236.133 147.906,448.161c130.637,544.217 201.018,696.766 136.443,639.936c-44.295,-38.982 -179.71,-763.243 -299.521,-1024.055c-2.392,-5.206 -24.563,-53.472 -16.387,-69.718c8.416,-16.723 12.199,-4.726 31.559,5.676Zm10452.855,1057.742c1.227,5.216 68.448,328.268 -23.656,62.66c-7.112,-20.508 8.887,-24.568 -68.232,-262.611c-23.023,-71.065 -29.205,-150.872 -142.173,-440.633c-72.271,-185.375 -65.945,-198.368 -126.875,-303.052c-18.453,-31.703 10.579,-45.222 32.546,-16.042c68.068,90.416 281.762,699.299 328.389,959.678Zm-5371.135,197.259c79.469,263.925 207.402,789.843 248.303,903.828c1.121,3.125 39.096,156.061 -28.344,30.314c-35.823,-66.795 -100.103,-359.704 -157.112,-547.937c-22.327,-73.72 -16.473,-121.462 -88.656,-336.771c-3.172,-9.461 -57.322,-222.67 -9.029,-174.549c12.749,12.704 8.615,14.479 34.838,125.115Zm5218.318,-1023.438c77.324,155.918 104.032,168.821 140.901,431.511c7.838,55.845 159.667,435.95 82.082,407.943c-24.865,-8.976 4.297,-26.071 -95.747,-316.275c-49.114,-142.469 -15.535,-241.759 -141.316,-470.248c-70.942,-128.871 -53.398,-136.311 -127.25,-264.555c-1.499,-2.602 -7.221,-76.943 36.33,-9.436c10.614,16.452 28.713,44.507 105,221.061Zm-5141.684,891.645c-2.619,-6.09 -22.105,-51.395 -23.584,-79.44c-1.004,-19.051 27.343,-27.53 38.669,3.225c3.956,10.741 42.965,116.668 46.688,135.25c53.667,267.854 59.499,266.24 63.553,289.611c43.105,248.488 70.997,343.294 74.994,366.31c48.794,280.985 74.406,280.577 61.726,301.699c-46.557,77.552 -126.348,-430.233 -153.923,-560.541c-89.138,-421.222 -94.586,-419.651 -108.122,-456.114Zm-3342.434,1591.683c8.44,5.61 205.872,136.835 85.324,93.632c-5.906,-2.116 -263.967,-157.303 -387.565,-277.117c-17.45,-16.916 -23.997,-8.219 -229.429,-199.125c-17.109,-15.899 -9.728,-22.657 -202.18,-210.613c-35.356,-34.53 -3.995,-53.263 21.8,-35.35c67.495,46.872 345.689,395.343 687.137,609.241c18.766,11.756 17.027,13.213 24.913,19.332Zm-655.551,-702.187c-41.385,-38.119 -43.429,-34.557 -52.845,-53.629c-15.097,-30.576 31.487,-39.255 114.999,66.583c161.805,205.062 192.701,179.832 293.284,302.525c128.67,156.952 123.012,163.509 398.86,364.937c53.571,39.118 4.698,43.103 1.647,41.741c-54.799,-24.456 -226.855,-163.967 -245.759,-179.295c-148.337,-120.278 -120.237,-146.019 -271.944,-292.888c-124.236,-120.274 -128.023,-115.342 -238.243,-249.975Zm9750.301,1228.809c-18.305,-211.147 -23.036,-218.782 -5.673,-222.859c43.361,-10.181 8.809,28.05 67.505,391.347c53.922,333.744 54.156,742.304 6.528,732.093c-13.43,-2.879 -10.021,-126.702 -9.717,-137.744c12.473,-452.979 -35.789,-449.594 -58.643,-762.837Zm-1327.842,-1666.364c6.403,20.081 97.455,305.622 39.612,260.465c-12.882,-10.057 -125.163,-448.313 -135.208,-487.521c-45.991,-179.513 -113.966,-420.679 -124.248,-457.157c-0.265,-0.942 -57.149,-148.037 -17.682,-131.943c48.939,19.957 158.085,534.546 237.526,816.155Zm-5187.724,274.867c20.906,54.957 201.791,979.523 198.382,985.199c-61.778,102.845 -145.075,-735.881 -254.943,-1027.015c-29.93,-79.31 -9.24,-85.503 4.974,-82.386c12.597,2.763 29.692,67.419 51.588,124.202Zm-6072.953,-686.369c21.78,-89.103 9.125,-214.48 36.884,-216.794c37.583,-3.133 13.216,74.135 13.028,81.479c-3.383,132.213 -17.088,129.817 -37.059,260.517c-28.735,188.053 -147.9,551.506 -183.847,747.962c-7.217,39.44 -45.703,38.066 -38.579,-1.711c38.901,-217.21 68.752,-260.058 83.903,-318.944c129.98,-505.2 114.214,-508.65 125.671,-552.508Zm11139.03,645.911c-11.348,-29.681 -11.722,-29.363 -12.255,-32.056c-50.956,-257.158 -62.813,-254.151 -65.908,-276.694c-14.451,-105.237 -139.043,-667.419 -138.474,-668.655c44.804,-97.182 128.511,448.461 162.747,593.201c56.506,238.895 58.767,238.072 63.414,258.883c51.012,228.468 78.761,224.856 69.617,242.882c-24.327,47.957 -57.069,-66.45 -79.14,-117.562Zm-6103.91,1352.418c54.326,192.969 98.166,682.004 26.161,595.272c-36.871,-44.412 64.3,-65.402 -89.217,-715.994c-7.357,-31.176 -79.487,-400.417 -76.074,-408.146c17.673,-40.021 43.22,6.903 139.13,528.868Zm6317.365,-1601.832c3.876,15.515 84.848,339.672 10.246,199.637c-14.238,-26.726 -6.556,-75.015 -68.653,-256.363c-48.678,-142.159 -31.482,-277.629 -86.684,-444.306c-10.255,-30.965 -126.424,-381.723 -104.98,-393.988c30.27,-17.313 34.34,8.485 147.607,410.136c67.525,239.447 20.09,249.533 102.464,484.883Zm335.921,1922.856c11.931,-50.42 9.833,-51.128 12.874,-54.407c31.006,-33.439 20.685,65.389 20.069,71.281c-48.503,464.453 -46.201,464.364 -50.73,504.689c-32.486,289.246 -120.057,525.336 -128.694,531.14c-41.722,28.036 1.831,-123.47 4.79,-133.761c12.379,-43.063 86.886,-302.246 103.088,-550.514c12.08,-185.09 20.336,-182.763 38.603,-368.427Zm-4150.527,-1827.639c-46.26,-169.937 -33.432,-172.426 -92.414,-339.127c-18.212,-51.473 -202.386,-571.999 -192.776,-654.713c0.491,-4.228 26.977,-37.494 42.136,32.491c62.112,286.757 328.07,985.613 289.53,1030.65c-20.185,23.587 -44.658,-62.877 -46.476,-69.301Zm2891.959,1951.32c-97.258,235.353 -405.531,415.364 -748.473,456.091c-21.734,2.581 -290.711,57.089 -258.519,2.513c20.126,-34.121 600.81,-10.08 905.419,-344.99c62.655,-68.887 36.514,-99.107 101.574,-113.614Zm-11330.126,-1525.275l-0,-76.294c219.296,-232.345 255.287,-870.064 298.033,-899.623c44.786,-30.97 12.517,96.877 10.45,105.067c-61.048,241.873 -60.236,507.658 -274.101,853.061c-16.538,26.709 -29.425,15.224 -34.382,17.789Zm11611.546,-94.717c59.542,121.577 159.918,400.385 88.515,319.803c-22.446,-25.332 0.463,-36.031 -161.491,-391.033c-115.838,-253.917 -230.034,-641.91 -209.607,-658.809c53.401,-44.175 20.572,89.7 169.815,457.978c55.319,136.506 55.94,134.362 112.767,272.062Zm2716.206,549.407c35.507,121.633 327.698,1021.177 223.61,989.51c-24.292,-7.39 -39.111,-342.163 -205.245,-786.203c-3.412,-9.119 -76.514,-270.98 -73.139,-292.397c12.94,-82.124 52.788,80.962 54.774,89.09Zm-6698.295,-148.26c-79.004,-316.691 -80.997,-315.25 -124.381,-445.48c-186.969,-561.246 -183.229,-620.292 -143.946,-591.505c7.881,5.775 109.39,390.871 208.397,656.841c42.946,115.368 102.33,407.893 101.775,410.861c-0.763,4.082 -23.191,34.538 -41.846,-30.717Zm-4318.149,-1784.479c-42.309,-130.38 -43.638,-129.764 -46.85,-141.226c-89.579,-319.705 -253.657,-639.563 -280.53,-852.734c-4.858,-38.539 30.642,-36.642 38.172,1.437c55.405,280.193 343.53,947.086 333.944,1023.024c-9.028,71.515 -43.305,-26.413 -44.736,-30.501Zm1494.922,1181.248c52.899,73.108 77.548,75.893 52.98,97.743c-27.04,24.048 -39.705,-33.546 -184.428,-226.679c-91.789,-122.493 -119.09,-275.836 -222.621,-431.63c-81.252,-122.268 -169.823,-327.024 -167.861,-330.816c15.752,-30.436 32.99,-2.708 230.185,361.281c128.214,236.662 89.983,257.219 206.598,400.905c40.62,50.05 40.112,66.271 85.147,129.195Zm10422.194,498.646c-157.208,-333.051 -276.349,-557.864 -236.157,-561.226c13.623,-1.14 20.48,-0.172 84.519,148.519c151.795,352.45 204.661,406.667 276.338,594.223c6.048,15.824 87.088,269.251 86.955,273.425c-0.272,8.567 -22.976,47.564 -44.784,-17.82c-74.482,-223.304 -70.046,-223.465 -166.871,-437.121Zm-3707.799,1960.237c93.986,-199.426 257.457,-651.319 265.106,-653.933c54.593,-18.658 12.806,33.604 -178.584,553.081c-33.659,91.358 -224.067,454.473 -263.47,485.164c-4.045,3.151 -50.687,7.534 -5.958,-63.818c180.58,-288.061 166.861,-295.714 182.906,-320.494Zm-9857.405,-3475.972c-0.916,-41.163 -1.07,-40.9 -0.99,-44.456c0.857,-37.751 34.468,-36.217 36.348,0.495c12.455,243.228 -37.689,435.219 -47.277,471.931c-63.051,241.416 -38.956,323.898 -51.607,398.697c-33.304,196.909 -25.66,197.808 -29.012,214.823c-12.726,64.605 -50.882,-4.095 -31.557,-108.183c26.89,-144.835 24.045,-144.259 31.517,-290.31c8.604,-168.198 93.855,-233.74 92.577,-642.997Zm11047.297,-397.607c60.122,229.634 60.075,228.601 113.71,460.424c39.57,171.03 30.675,171.96 87.128,337.671c1.973,5.792 30.542,89.653 -10.9,75.703c-58.558,-19.711 -115.529,-618.089 -290.271,-1038.504c-1.298,-3.123 -50.823,-176.517 23.11,-35.398c38.87,74.192 72.222,183.69 77.222,200.104Zm-7217.569,242.509c12.375,20.076 126.922,287.943 109.808,304.701c-37.599,36.82 -16.996,-25.056 -186.646,-379.948c-184.24,-385.413 -293.111,-762.733 -207.465,-651.149c32.352,42.15 -5.941,108.2 284.303,726.396Zm3692.922,66.683c-168.65,-481.87 -202.232,-633.045 -214.76,-689.439c-0.641,-2.887 6.231,-120.132 34.609,-12.994c124.835,471.302 318.796,969.423 296.808,1038.042c-27.146,84.716 -86.898,-230.128 -116.657,-335.609Zm-7294.03,473.349c-26.75,192.292 -27.984,190.844 -64.41,380.532c-21.116,109.962 -25.214,262.278 -57.955,208.924c-31.131,-50.732 131.09,-590.903 89.687,-972.988c-1.087,-10.03 -55.056,-185.56 -6.4,-150.526c33.144,23.865 43.369,236.748 44.373,257.638c6.662,138.701 8.083,137.838 -5.295,276.42Zm2594.163,1288.011c7.487,5.732 125.576,96.143 68.661,95.809c-33.602,-0.197 -25.899,-17.232 -318.999,-273.252c-353.277,-308.583 -466.414,-519.944 -457.828,-531.578c38.136,-51.672 99.438,154.326 343.388,372.222c29.623,26.459 25.893,29.773 364.778,336.8Zm-2761.572,-1292.877c34.867,-339.783 -1.321,-447.584 10.37,-468.472c74.661,-133.385 26.926,594.403 -6.413,791.493c-47.845,282.849 -20.612,293.71 -42.049,306c-71.353,40.909 14.347,-362.359 38.091,-629.021Zm-381.982,675.635c20.02,-128.168 25.506,-154.781 28.261,-168.14c50.92,-246.987 46.427,-878.682 102.266,-882.576c11.999,-0.837 27.965,3.373 5.285,150.259c-58.566,379.314 -8.964,436.494 -70.511,746.104c-40.791,205.196 -29.861,224.961 -59.668,220.463c-19.086,-2.88 -8.764,-11.339 -5.633,-66.11Zm2745.799,830.855c295.634,236.13 473.009,248.763 389.428,264.44c-29.404,5.515 -239.025,-83.289 -455.356,-274.439c-210.764,-186.231 -197.262,-198.92 -397.321,-395.869c-55.096,-54.239 -5.817,-57.102 -2.659,-55.658c34.174,15.622 227.873,252.728 307.458,315.32c16.007,12.589 145.87,134.406 158.45,146.207Zm8775.012,-2750.318c-2.152,-3.365 -22.836,-35.707 -17.059,-46.923c29.885,-58.025 170.705,295.664 205.17,349.291c74.533,115.974 302.159,611.391 270.802,666.398c-25.491,44.717 -24.776,-11.735 -98.025,-226.156c-31.891,-93.355 -331.031,-683.69 -360.888,-742.61Zm-6164.891,2663.018c13.774,42.233 117.522,360.343 140.438,537.23c4.139,31.95 -25.517,37.054 -34.426,10.694c-36.53,-108.085 -34.037,-208.093 -101.004,-406.626c-17.375,-51.511 -207.284,-614.522 -178.006,-655.802c34.921,-49.236 16.806,25.622 172.998,514.505Zm4731.058,-677.242c-47.384,-74.465 -190.72,-541.318 -178.138,-557.368c32.748,-41.776 65.857,111.674 68.225,122.649c53.54,248.143 353.023,928.157 332.435,948.57c-31.811,31.541 -38.459,-8.298 -222.522,-513.851Zm3051.469,942.2c-11.328,-37.536 -136.502,-452.289 -125.131,-473.86c36.239,-68.748 71.706,184.426 158.372,457.186c72.755,228.977 154.849,622.194 141.691,639.474c-43.049,56.537 -34.804,-65.252 -88.437,-290.227c-39.851,-167.163 -44.751,-165.017 -86.496,-332.573Zm-9292.882,-2608.67c-8.682,-21.257 -102.69,-251.441 -81.166,-275.303c4.243,-4.704 25.279,-22.845 51.028,60.558c147.544,477.901 185.603,462.457 307.8,808.292c59.483,168.345 67.299,165.72 68.735,181.154c15.657,168.29 -159.936,-313.588 -174.495,-349.071c-87.182,-212.471 -91.469,-209.431 -171.901,-425.63Zm7385.331,4069.256c92.695,-410.907 107.121,-914.328 144.854,-913.874c47.173,0.567 -111.07,1083.353 -167.572,1129.451c-63.129,51.505 -2.582,-109.457 22.718,-215.577Zm-12023.779,-3083.96c35.506,-162.661 30.368,-166.112 42.644,-173.42c55.387,-32.972 -18.854,202.898 -22.97,237.466c-24.563,206.305 -176.355,868.063 -227.643,877.753c-6.728,1.271 -33.857,0.51 -2.195,-85.566c167.211,-454.588 139,-593.623 210.164,-856.233Zm11825.291,0.245c11.17,31.493 154.812,436.487 87.366,408.454c-8.561,-3.558 -102.404,-353.166 -193.838,-616.925c-33.929,-97.874 -36.503,-96.545 -110.106,-415.097c-108.365,-469 58.962,82.902 61.145,91.426c68.891,268.972 72.36,266.429 155.433,532.142Zm1251.231,2014.863c34.714,298.45 33.822,297.699 48.527,567.082c1.294,23.708 19.752,361.848 -30.623,295.211c-34.193,-45.231 38.895,-56.465 -36.909,-707.809c-47.606,-409.057 -51.754,-435.786 -18.179,-428.658c21.652,4.596 10.941,14.293 37.184,274.175Zm-8911.033,-1899.381c-139.47,-205.542 -299.903,-562.133 -300.316,-585.585c-1.878,-106.862 108.261,151.055 114.595,165.889c127.893,299.493 434.873,728.973 446.713,780.742c0.944,4.13 -13.981,41.863 -49.459,-18.915c-186.885,-320.153 -196.274,-313.799 -211.533,-342.13Zm3540.041,-704.901c-22.504,-71.049 3.246,-67.697 8.605,-66.999c17.757,2.312 87.664,344.087 104.471,400.329c16.644,55.697 200.846,672.115 194.159,700.209c-18.803,78.994 -53.913,-67.58 -55.651,-74.835c-124.88,-521.337 -178.429,-568.805 -251.584,-958.705Zm-5180.447,-1139.401l30.518,0c161.393,721.449 392.03,1154.274 292.966,1101.364c-5.743,-3.067 -303.325,-877.185 -323.484,-1101.364Zm12336.898,3001.61c-8.412,-18.143 -8.55,-16.438 -16.754,-36.133c-251.984,-604.901 -263.026,-599.86 -283.149,-653.135c-54.828,-145.156 -89.625,-181.353 -43.218,-169.367c13.526,3.494 440.898,947.889 440.095,1038.428c-1.116,125.883 -92.083,-164.199 -96.973,-179.792Zm-13885.818,-1039.19c-47.523,401.442 -52.862,421.442 -85.817,413.87c-25.052,-5.756 18.049,-153.507 35.988,-308.514c52.462,-453.306 90.306,-940.306 124.186,-811.761c12.246,46.464 -9.138,46.219 -58.638,597.762c-0.785,8.747 -3.15,7.106 -15.72,108.644Zm2854.062,1073.407c-180.547,-133.032 -655.004,-613.701 -645.984,-677.506c6.23,-44.072 75.743,48.77 80.414,55.009c289.49,386.647 716.231,696.276 735.022,725.405c19.272,29.875 -33.601,38.377 -169.452,-102.908Zm2501.815,373.008c3.539,18.907 57.908,231.951 4.231,174.782c-39.121,-41.667 7.737,-59.14 -184.159,-690.276c-25.272,-83.12 -67.748,-310.087 -72.825,-337.215c-0.039,-0.21 -32.321,-87.145 0.361,-85.221c31.918,1.879 61.645,295.377 156.991,571.899c49.451,143.417 89.283,336.395 95.401,366.031Zm6256.23,-2145.887c-3.943,-8.726 -5.689,-6.189 -16.676,-36.902c-262.858,-734.813 -337.817,-709.853 -330.41,-776.992c12.533,-113.597 204.515,371.021 289.683,552.255c80.784,171.903 155.125,487.928 150.22,498.784c-27.516,60.901 -53.538,-101.781 -92.818,-237.144Zm-5539.048,1059.571c1.648,3.423 180.861,565.664 129.845,565.537c-23.814,-0.059 -17.616,-56.336 -247.561,-850.077c-15.391,-53.129 -49.673,-211.908 -53.667,-230.408c-6.639,-30.751 25.654,-38.521 36.986,1.686c6.418,22.769 2.592,23.426 71.728,286.87c30.086,114.642 29.042,113.207 62.669,226.392Zm-2776.701,-126.238c-256.666,-385.24 -429.689,-763.109 -461.384,-832.33c-24.516,-53.542 18.882,-51.84 29.284,-31.302c36.632,72.334 61.688,146.567 67.398,157.746c319.404,625.297 454.443,763.428 466.032,805.178c11.679,42.075 -42.587,28.498 -101.33,-99.292Zm4844.359,-2196.281l45.776,0c29.711,198.337 164.958,533.929 214.387,923.107c15.851,124.804 -40.373,2.384 -40.928,-0.844c-110.51,-643.441 -184.702,-696.898 -219.235,-922.263Zm2494.551,1332.653c49.028,169.58 33.856,172.866 94.878,339.521c37.545,102.538 110.434,417.574 118.9,454.165c19.237,83.145 41.836,101.32 7.332,103.255c-43.887,2.462 3.531,-37.285 -154.15,-527.378c-14.475,-44.99 -210.39,-653.918 -122.057,-578.016c21.546,18.514 30.963,123.412 55.097,208.452Zm-2929.681,-413.365c12.657,28.7 154.954,528.29 141.251,550.535c-32.872,53.363 -53.133,-108.841 -95.075,-255.308c-213.7,-746.266 -257.886,-915.399 -193.183,-838.962c29.113,34.393 1.278,44.875 147.007,543.734Zm-3547.414,-919.288l45.776,0c2.362,22.829 -3.532,23.955 97.701,479.126c117.963,530.392 186.071,544.023 161.292,565.644c-82.032,71.575 -278.54,-939.878 -304.769,-1044.77Zm5302.876,3463.482c-215.069,-253.631 -444.229,-812.905 -441.633,-847.872c9.514,-128.157 26.61,39.749 208.51,396.151c213.352,418.029 255.097,418.574 332.455,520.269c36.502,47.985 -38.581,27.099 -99.332,-68.548Zm-7790.059,-3463.482l30.518,0c57.054,256.11 76.64,251.338 105.479,511.279c10.734,96.75 66.692,162.36 121.875,381.773c10.51,41.79 76.866,186.309 17.354,136.22c-7.16,-6.026 -153.526,-369.495 -179.961,-549.116c-23.838,-161.977 -21.801,-161.192 -68.346,-318.603c-3.183,-10.764 -26.792,-90.609 -32.717,-136.437c-1.102,-8.522 6.9,-16.595 5.799,-25.117Zm7926.308,5050.61c-7.467,5.898 -121.116,95.665 -112.554,38.444c3.171,-21.191 41.125,13.625 190.57,-188.203c42.411,-57.277 82.493,-62.237 275.894,-501.092c20.511,-46.542 110.362,-358.526 117.307,-242.372c2.665,44.573 -255.678,732.796 -471.217,893.224Zm-288.711,-1649.996c-14.729,-18.677 -123.308,-156.361 -163.088,-248.598c-160.795,-372.835 -227.037,-498.626 -164.509,-476.067c18.933,6.831 176.868,500.89 378.277,735.985c165.709,193.424 190.995,175.049 191.702,197.029c0.984,30.597 -88.603,-8.908 -242.382,-208.35Zm4790.672,-539.591l0,91.553c-3.957,-4.249 -13.156,1.002 -17.112,-3.247c-5.097,-5.473 -165.608,-398.203 -204.595,-469.471c-13.134,-24.009 6.812,-31.756 -145.201,-309.734c-20.872,-38.167 -103.586,-216.793 -43.627,-171.223c9.969,7.577 249.396,491.124 386.665,832.007c8.256,20.503 23.481,29.625 23.869,30.115Zm-2403.244,-2861.023l45.776,0c2.765,14.517 6.498,34.119 89.388,161.654c152.913,235.27 283.216,513.472 295.342,546.734c41.852,114.799 72.824,103.086 91.733,168.363c4.451,15.365 -16.759,52.857 -44.37,-1.652c-32.31,-63.786 -63.54,-100.207 -70.334,-117.868c-46.602,-121.137 -51.903,-117.143 -111.665,-233.835c-244.43,-477.28 -275.19,-458.878 -295.726,-500.614c-3.353,-6.814 3.207,-15.968 -0.146,-22.781Zm-9933.472,0l30.518,0c221.389,875.596 325.753,1039.401 233.529,934.034c-55.189,-63.054 -218.245,-749.575 -266.777,-894.794c-0.997,-2.984 0.202,-2.907 2.731,-39.239Zm-3136.328,2683.298c-58.221,91.551 -27.556,-20.163 -26.333,-22.658c79.928,-163.137 49.348,-172.226 102.143,-347.207c97.897,-324.465 77.398,-328.181 136.959,-671.104c4.842,-27.876 35.607,-14.008 32.937,12.95c-23.19,234.086 -176.941,901.04 -245.704,1028.02Zm2046.01,-1543.424c-7.202,-15.605 -85.662,-185.616 -80.066,-199.362c55.059,-135.251 353.207,1004.194 294.103,1060.098c-40.522,38.328 -16.232,-96.472 -44.651,-190.483c-67.732,-224.066 -28.661,-233.035 -169.386,-670.253Zm3462.952,2192.061c73.721,303.545 91.813,299.701 121.454,610.553c36.381,381.546 28.235,407.709 17.727,441.456c-44.731,143.658 -24.202,-67.17 -23.605,-73.301c8.212,-84.329 -19.602,-144.565 -24.904,-274.664c-21.085,-517.414 -200.097,-839.539 -100.55,-730.344c1.514,1.661 0.732,1.948 9.878,26.301Zm-1128.87,1308.654c14.178,-22.493 51.326,-81.424 137.265,-302.685c132.878,-342.111 142.052,-653.074 146.954,-666.204c2.501,-6.7 28.055,-14.655 27.531,13.402c-7.491,401.195 -257.121,1014.605 -333.805,1027.121c-47.574,7.764 18.101,-67.126 22.054,-71.634Zm-3219.484,-2314.645c-1.418,9.138 -24.729,159.353 -47.651,105.313c-7.088,-16.711 11.688,-17.094 14.03,-226.462c2.613,-233.695 41.808,-250.789 60.078,-732.203c0.383,-10.094 7.66,-201.848 37.611,-120.538c23.681,64.288 -58.395,598.331 -64.068,973.891Zm4478.162,-2325.945l45.776,0c53.172,276.95 229.113,820.893 247.209,891.596c0.823,3.214 18.818,178.443 -28.801,29.837c-143.753,-448.61 -245.257,-847.121 -264.185,-921.433Zm6614.395,4921.297c-2.941,13.008 -35.479,156.927 -52.118,158.352c-40.91,3.504 13.601,-93 19.074,-173.492c19.686,-289.508 89.607,-364.413 111.309,-779.309c0.542,-10.358 12.743,-243.618 40.689,-123.1c25.25,108.888 -110.68,794.388 -118.955,917.549Zm2869.002,-1781.052c-43.16,-66.906 -209.249,-503.461 -350.538,-763.42c-31.454,-57.872 16.921,-33.492 18.644,-31.154c46.072,62.534 455.638,960.607 441.702,986.643c-26.548,49.598 -20.849,-34.624 -109.808,-192.07Zm-3799.299,-1161.231c-9.418,-19.125 -99.745,-202.556 -91.487,-250.281c20.437,-118.108 23.295,28.403 74.076,137.849c104.341,224.884 93.958,227.335 178.512,460.052c140.745,387.37 211.169,425.41 150.553,418.385c-29.479,-3.417 -185.689,-390.284 -311.654,-766.005Zm3005.864,2108.491c-20.888,-121.661 -88.793,-310.768 -155.57,-586.27c-91.91,-379.191 -187.891,-532.799 -109.802,-459.442c6.008,5.644 89.962,242.509 99.122,278.434c188.995,741.178 232,806.073 172.763,778.651c-3.964,-1.835 -2.548,-9.538 -6.513,-11.373Zm-8911.157,-2915.928c-4.717,-8.655 -32.328,-59.318 -52.119,-111.637c-164.051,-433.689 -291.154,-664.495 -287.79,-715.991c5.893,-90.23 60.252,99.137 78.171,134.035c73.596,143.334 68.741,144.632 129.825,293.435c180.28,439.167 192.589,432.224 241.463,550.024c12.102,29.168 -22.306,33.277 -33.718,9.811c-39.142,-80.485 -36.853,-80.297 -75.832,-159.677Zm-2609.119,-779.205c-6.888,-14.429 -114.049,-238.894 -42.516,-195.288c1.514,0.923 72.046,167.297 120.612,315.894c170.359,521.246 273.564,650.978 264.688,699.963c-9.472,52.28 -42.59,-41.181 -44.296,-45.996c-47.797,-134.885 -78.299,-122.827 -298.489,-774.573Zm10451.739,3228.008c0.813,5.068 33.549,88.115 73.441,659.237c28.362,406.053 29.237,435.815 -1.802,422.445c-12.888,-5.551 -50.038,-779.956 -74.144,-895.796c-19.458,-93.504 -43.684,-224.45 -4.069,-198.532c3.976,2.601 2.599,10.045 6.575,12.646Zm-4211.859,-2197.169c53.072,115.442 54.333,196.381 23.725,171.255c-13.153,-10.797 10.998,-21.647 -74.432,-199.267c-20.56,-42.747 -43.563,-90.573 -180.26,-564.868c-20.667,-71.707 -137.832,-354.215 -62.822,-277.299c34.292,35.163 214.51,712.486 293.789,870.179Zm3784.845,-978.391c177.565,213.62 245.51,455.706 368.673,679.691c15.285,27.797 93.021,198.114 37.201,162.22c-47.146,-30.316 -153.38,-438.117 -440.981,-838.999c-84.032,-117.131 -73.023,-127.106 -63.345,-133.951c22.106,-15.635 50.008,56.564 98.452,131.039Zm-4882.731,841.809c250.218,766.291 247.957,765.925 277.528,829.331c53.795,115.35 62.99,228.266 23.327,178.139c-11.212,-14.17 9.464,-21.836 -77.795,-212.044c-33.127,-72.21 -165.891,-541.001 -251.022,-774.813c-1.291,-3.546 -33.71,-92.585 16.505,-44.188c1.51,1.455 0.849,1.746 11.457,23.575Zm-793.446,763c149.784,393.65 112.335,405.267 266.603,796.33c4.542,11.513 79.481,201.482 14.469,154.024c-12.935,-9.442 12.165,-20.749 -67.99,-188.284c-28.117,-58.769 -19.453,-61.603 -251.292,-774.619c-22.502,-69.205 -33.309,-75.697 -18.027,-79.977c37.043,-10.375 50.627,72.694 56.239,92.527Zm-549.214,1546.17c23.968,105.258 17.733,110.061 8.879,110.398c-33.399,1.273 -10.965,-63.389 -88.543,-221.495c-25.146,-51.249 -5.034,-57.272 -207.112,-682.862c-45.618,-141.225 -38.352,-148.694 -26.241,-149.279c27.631,-1.336 141.059,402.083 151.086,437.747c95.314,338.998 102.096,336.131 161.93,505.491Zm-2182.276,-2250.964c119.74,145.892 146.761,304.915 376.27,644.809c82.857,122.707 81.856,128.93 72.476,137.045c-53.49,46.275 -382.303,-646.277 -485.619,-777.208c-57.151,-72.426 -103.844,-234.499 -47.549,-166.344c9.293,11.251 -7.916,19.969 84.422,161.698Zm7720.836,-150.583c109.781,241.225 82.625,309.429 236.308,720.875c47.275,126.567 40.139,130.627 30.438,136.145c-43.517,24.752 -162.462,-455.87 -197.328,-548.457c-59.735,-158.624 -41.914,-164.24 -110.798,-318.41c-63.907,-143.032 -41.241,-236.984 -17,-167.297c30.649,88.109 24.658,89.233 58.381,177.144Zm-7700.664,1742.891c-31.294,34.731 -36.743,1.035 -196.069,-121.139c-49.083,-37.638 -190.256,-198.079 -259.238,-259.706c-121.433,-108.487 -104.262,-123.981 -225.11,-233.397c-89.002,-80.582 -135.134,-182.261 -84.311,-156.237c15.243,7.805 -8.38,30.047 142.447,159.78c91.98,79.117 235.484,285.547 508.021,511.799c104.05,86.379 102.287,87.938 114.261,98.899Zm6531.584,548.527c-77.417,75.931 -331.68,-571.374 -461.801,-772.74c-29.018,-44.905 -99.999,-183.475 -53.535,-177.58c19.837,2.517 -2.625,22.065 120.281,219.099c14.807,23.737 212.508,431.404 216.541,441.188c49.347,119.698 115.394,198.667 178.514,290.032Zm2199.342,-3485.671l61.035,0c13.485,79.09 59.818,78.641 161.437,240.322c23.417,37.258 372.831,549.952 264.578,517.375c-22.197,-6.68 4.909,-27.943 -144.095,-251.389c-59.074,-88.587 -58.64,-136.044 -304.495,-447.202c-22.01,-27.856 -19.439,-27.755 -38.459,-59.106Zm-9796.143,0l45.776,0c4.627,34.559 63.644,333.24 85.818,420.804c7.128,28.147 88.217,348.365 87.261,352.3c-43.128,177.433 -218.65,-772.05 -218.855,-773.104Zm2380.371,0l30.518,0c9.852,30.687 91.799,285.943 101.743,389.814c14.261,148.967 28.957,144.833 67.979,288.651c46.041,169.689 47.279,168.065 49.909,183.011c5.502,31.264 -28.27,45.857 -39.679,1.789c-75.055,-289.912 -101.75,-283.324 -112.765,-428.583c-18.355,-242.051 -96.32,-318.976 -97.705,-434.682Zm-2487.183,0l45.776,0c4.917,33.762 11.584,79.548 82.053,418.509c90.821,436.859 139.44,457.518 101.832,460.982c-63.879,5.884 -113.927,-417.674 -229.661,-879.492Zm6439.209,0l45.776,0c-0.674,21.914 -1.495,48.613 57.321,267.995c12.274,45.78 149.602,558.016 137.3,576.334c-21.715,32.333 -53.17,-95.427 -55.435,-104.624c-167.848,-681.741 -179.437,-678.958 -184.962,-739.705Zm-5445.211,3683.383c-6.685,1.514 -155.955,80.208 -565.945,-77.537c-131.728,-50.683 -127.269,-57.931 -258.692,-108.298c-100.56,-38.539 -190.568,-145.429 -106.39,-107.069c0.31,0.141 73.055,57.052 122.725,75.64c429.07,160.568 428.932,209.465 745.429,207.864c37.999,-0.192 36.939,2.216 62.874,9.401Zm5353.658,-3683.383l30.518,0c66.865,273.393 120.175,535.869 201.3,723.274c5.769,13.326 93.561,216.131 30.295,178.964c-11.363,-6.676 -202.042,-527.25 -262.112,-902.237Zm5851.73,2555.847l0,106.812c-76.9,-129.327 -218.198,-571.601 -310.803,-688.163c-53.611,-67.48 -46.624,-102.599 -16.384,-91.776c3.485,1.247 89.144,133.931 91.297,138.731c199.249,444.263 204.689,495.975 216.96,517.225c4.26,7.377 14.669,9.794 18.93,17.171Zm-9620.651,-2555.847l45.776,0c0.895,8.37 -7.592,15.978 -6.697,24.347c9.215,86.152 235.66,774.522 205,791.896c-43.646,24.733 -19.53,-26.384 -195.808,-595.728c-25.492,-82.336 -20.748,-81.938 -48.272,-220.516Zm-2365.112,0l45.776,0c54.368,257.583 44.609,259.39 125.782,510.268c4.569,14.121 49.377,152.609 36.757,181.842c-42.944,99.477 -201.112,-663.455 -208.315,-692.11Zm6332.397,0l45.776,0c-1.826,27.69 -6.473,26.975 5.935,82.818c150.774,678.61 186.36,726.173 133.908,711.877c-22.881,-6.237 -183.885,-782.713 -185.619,-794.695Zm3509.521,0l45.776,0c11.854,25.251 5.552,26.892 22.265,47.43c140.604,172.788 114.95,220.768 212.797,352.008c112.553,150.966 144.613,258.848 143.068,263.021c-24.063,64.977 -77.636,-103.81 -150.16,-211.669c-103.387,-153.758 -87.026,-162.71 -187.163,-317.641c-44.083,-68.206 -63.095,-56.373 -86.584,-133.149Zm-7385.254,0l30.518,0c150.997,498.3 264.801,792.449 184.828,722.956c-25.849,-22.461 -4.229,-32.884 -127.478,-408.624c-7.59,-23.139 -92.186,-281.043 -93.877,-289.566c-1.653,-8.332 7.662,-16.433 6.009,-24.766Zm3997.803,0l45.776,0c-14.245,314.188 36.247,308.39 88.506,618.542c2.773,16.457 49.868,120.055 18.134,120.384c-42.923,0.445 -66.756,-210.05 -89.09,-289.428c-61.808,-219.671 -54.006,-220.572 -63.326,-449.498Zm91.553,0l45.776,0c-4.392,97.015 118.565,639.383 115.356,644.691c-53.459,88.424 -118.866,-435.752 -151.686,-574.422c-1.653,-6.983 -8.754,-64.639 -9.447,-70.268Zm5439.743,2281.189l0,106.812c-21.527,-37.551 -25.999,-34.065 -42.735,-74.547c-99.931,-241.725 -115.074,-234.281 -144.832,-308.245c-80.759,-200.73 -99.94,-194.6 -97.361,-213.17c14.59,-105.058 176.091,300.519 284.928,489.151Zm-9330.734,-2281.189l30.518,0c44.057,208.049 182.111,556.226 164.615,601.415c-2.308,5.961 -35.556,34.282 -52.155,-60.531c-25.583,-146.135 -52.509,-180.829 -56.06,-196.146c-34.435,-148.518 -54.658,-142.23 -84.113,-292.128c-5.205,-26.487 -1.363,-25.571 -2.805,-52.61Zm-2487.183,0l30.518,0c8.381,45.642 138.068,562.167 114.099,594.561c-30.449,41.15 -46.971,-76.2 -48.049,-83.856c-31.905,-226.601 -99.585,-396.26 -96.567,-510.705Zm-3807.068,2265.93l-0,-91.553c30.112,-54.055 37.302,-50.5 65.285,-153.503c5.98,-22.012 13.958,-19.194 84.159,-272.414c11.105,-40.058 7.366,-39.736 19.261,-80.778c9.394,-32.412 38.663,-18.369 35.905,3.121c-4.523,35.244 -11.628,90.604 -117.576,428.319c-34.176,108.936 -76.883,155.695 -87.034,166.809Zm13572.693,-2265.93l45.776,0c4.136,5.228 1.01,14.098 5.146,19.325c15.349,19.397 34.924,35.043 52.019,52.92c43.702,45.701 94.957,117.397 102.592,128.077c17.928,25.078 184.877,258.607 204.403,326.653c19.099,66.559 -41.985,13.764 -76.39,-60.509c-93.472,-201.79 -291.861,-385.555 -333.547,-466.466Zm-7369.995,0l30.518,0c14.221,96.355 23.845,92.367 49.68,188.989c98.716,369.197 159.067,438.693 131.698,454.943c-38.046,22.589 -203.731,-545.488 -211.895,-643.932Zm4119.873,0l45.776,0c-22.075,244.322 99.936,620.801 47.511,596.591c-49.434,-22.828 -90.52,-532.706 -93.287,-596.591Zm91.553,0l45.776,0c26.079,310.833 95.581,526.558 45.308,512.274c-17.09,-4.856 -25.665,-7.292 -54.026,-215.402c-11.997,-88.035 -34.207,-273.109 -37.059,-296.872Zm-3967.285,0l45.776,0c-2.982,82.458 8.225,80.022 26.857,160.492c76.608,330.872 88.335,333.146 71.262,356.713c-22.09,30.492 -41.956,-3.883 -140.141,-449.312c-7.399,-33.567 -1.827,-33.047 -3.754,-67.894Zm7263.184,0l45.776,0c51.861,110.003 88.513,82.253 179.511,223.522c79.406,123.273 144.582,202.331 94.966,198.849c-36.548,-2.565 8.48,-50.447 -284.417,-358.958c-26.192,-27.588 -27.382,-26.671 -35.836,-63.414Zm-7156.372,0l45.776,0c11.871,180.552 64.599,353.352 71.438,404.811c0.409,3.076 -15.815,139.039 -36.057,14.288c-19.028,-117.262 -63.715,-216.645 -81.157,-419.099Zm-2670.288,0l45.776,0c1.757,10.995 -6.495,12.053 17.84,98.33c73.825,261.744 189.235,503.067 106.329,426.062c-14.06,-13.059 3.317,-21.148 -81.369,-225.647c-20.232,-48.857 -51.054,-173.277 -88.577,-298.745Zm106.812,0l45.776,0c-3.112,80.423 124.016,464.935 90.096,477.173c-45.043,16.25 -22.148,-76.847 -131.999,-439.923c-0.868,-2.868 -0.287,-2.759 -3.874,-37.249Zm6530.762,0l45.776,0c20.536,144.424 110.141,562.342 36.162,431.454c-4.43,-7.837 -77.191,-404.569 -81.938,-431.454Zm5104.05,2037.048l0,76.294c-5.557,-5.126 -32.025,3.204 -102.285,-166.98c-5.405,-13.092 -8.256,-11.434 -85.905,-154.811c-10.866,-20.063 -24.228,-38.699 -35.22,-58.693c-18.76,-34.123 17.619,-44.574 28.876,-27.932c44.774,66.195 149.859,272.244 162.136,296.316c11.325,22.205 15.605,17.246 32.399,35.806Zm-11543.259,-2037.048l45.776,0c-8.632,85.585 145.525,587.843 45.722,404.399c-15.503,-28.495 -84.926,-371.887 -91.498,-404.399Zm6607.056,0l45.776,0c-7.815,271.485 49.694,388.203 -10.561,352.047c-12.225,-7.336 -27.797,-140.19 -35.215,-352.047Zm-4028.32,0l30.518,0c14.639,81.416 19.454,79.333 25.716,160.53c5.835,75.65 58.552,162.559 52.453,198.693c-21.862,129.508 -110.015,-288.31 -114.744,-335.19c-0.829,-8.22 6.887,-15.813 6.057,-24.033Zm-2487.183,0l30.518,0c3.256,11.677 36.482,130.839 39.794,146.206c39.223,181.984 45.824,180.483 46.725,196.626c1.549,27.753 -47.404,23.625 -74.733,-120.704c-35.082,-185.276 -44.718,-181.538 -47.619,-197.533c-1.496,-8.253 6.811,-16.342 5.315,-24.595Zm9674.072,0l45.776,0c13.837,77.228 86.16,104.167 207.171,256.343c18.022,22.663 -13.289,50.389 -40.274,11.43c-55.214,-79.713 -185.037,-199.233 -212.06,-245.439c-3.76,-6.429 3.146,-15.905 -0.614,-22.334Zm-13847.351,2006.531l-0,-122.07c3.921,-4.092 12.737,0.684 16.658,-3.408c30.494,-31.824 58.126,-260.065 96.901,-209.603c14.236,18.526 -79.44,284.706 -95.218,317.791c-3.617,7.584 -14.725,9.706 -18.342,17.29Zm13969.421,-2006.531l61.035,0c55.764,106.833 180.308,223.693 106.827,220.109c-25.137,-1.226 -93.586,-130.988 -125.641,-163.547c-12.587,-12.785 -28.789,-22.162 -39.521,-36.539c-4.029,-5.397 1.328,-14.626 -2.7,-20.023Zm-9689.331,0l45.776,0c17.234,194.825 113.192,421.594 17.492,250.368c-37.541,-67.168 -60.396,-229.91 -63.269,-250.368Zm11344.894,1777.649l0,61.035c-1.923,-1.626 -6.32,3.993 -51.465,-47.529c-1.226,-1.399 -105.565,-181.407 -101.524,-193.7c24.633,-74.932 92.518,138.349 152.99,180.193Zm-8827.194,-1777.649l45.776,0c-2.773,144.116 81.414,302.639 18.137,277.077c-9.273,-3.746 -45.976,-162.847 -63.913,-277.077Zm3982.544,0l45.776,0c1.152,7.932 -5.362,15.743 -4.21,23.675c14.725,101.355 30.528,96.222 47.849,198.164c0.833,4.905 37.812,320.8 -22,58.171c-32.002,-140.518 -30.491,-139.95 -67.416,-280.01Zm91.553,0l45.776,0c-0.411,95.554 41.742,361.079 -12.208,234.495c-9.866,-23.15 -31.456,-215.662 -33.568,-234.495Zm-3982.544,0l45.776,0c-8.878,151.494 41.713,148.508 26.581,204.849c-22.838,85.033 -62.29,-106.167 -72.358,-204.849Zm-2502.441,0l45.776,0c-13.201,109.38 67.681,263.044 1.876,204.098c-29.363,-26.302 -45.936,-187.419 -47.652,-204.098Zm6576.538,0l45.776,0c-1.178,80.035 -4.275,78.855 6.043,159.702c11.162,87.46 -36.064,18.975 -36.793,15.854c-3.205,-13.727 -7.752,-33.204 -15.027,-175.556Zm76.294,0l45.776,0c-7.631,90.96 42.72,207.866 -12.93,143.049c-10.85,-12.637 -28.254,-111.574 -32.847,-143.049Zm-4028.32,0l30.518,0c15.604,137.559 23.133,136.978 18.053,147.747c-33.409,70.825 -47.71,-135.335 -48.571,-147.747Zm-2517.7,0l45.776,0c20.458,119.622 9.816,123.809 -0.115,124.293c-31.892,1.556 -42.931,-104.262 -45.661,-124.293Zm11131.271,1625.061l0,45.776c-27.048,-15.227 -27.992,-13.754 -45.734,-40.156c-1.114,-1.658 -83.689,-101.618 -38.115,-92.368c9.459,1.92 2.032,9.293 83.848,86.748Zm-1472.458,-1625.061l61.035,0c33.424,181.089 -58.777,4.329 -61.035,0Zm-2990.723,0l30.518,0c1.115,6.159 17.137,94.67 -12.077,77.297c-38.914,-23.142 -20.822,-32.822 -18.44,-77.297Zm-4043.579,0l45.776,0c-7.064,52.758 -8.903,54.423 -12.396,57.586c-19.097,17.292 -32.383,-52.355 -33.381,-57.586Zm8506.76,1426.697l0,76.294c-32.447,-33.412 -35.069,-30.731 -38.161,-45.771c-5.855,-28.478 10.631,-19.266 38.161,-30.523Zm-11009.201,-1426.697l45.776,0c-10.17,33.317 -4.798,61.683 -30.837,38.475c-2.465,-2.197 -1.107,-2.85 -14.939,-38.475Zm6637.573,0l45.776,0l-27.873,31.101l-17.904,-31.101Z" style="fill:#2546b5;fill-opacity:0.96;"/><path d="M4348.527,6264.764c-56.906,18.969 -864.981,288.327 -630.715,405.46c48.916,24.458 807.851,539.59 946.073,585.664c316.573,105.524 537.97,612.096 563.139,360.409c60.3,-602.997 -809.08,-535.094 -923.547,-878.496c-71.827,-215.482 857.972,-110.627 427.985,-540.613c-136.709,-136.709 -337.883,22.526 -337.883,22.526l-45.051,45.051Z" style="fill:#8b9bd3;"/><path d="M3807.914,5904.355c0,0 -280.907,70.227 -540.613,292.832c-213.972,183.404 -52.691,501.292 -405.46,765.869c-494.743,371.057 -183.503,602.284 427.985,653.241c1.612,0.134 1037.496,327.281 382.934,0c-64.745,-32.372 -23.429,-90.403 -427.985,-225.255c-416.231,-138.744 -361.585,-224.079 -337.883,-247.781c184.165,-184.165 264.01,-100.034 382.934,-337.883c12.777,-25.555 -203.466,-303.727 765.869,-788.394c182.577,-91.288 365.544,-110.06 180.204,-202.73c-112.339,-56.169 -215.345,74.605 -518.088,135.153l90.102,-45.051Z" style="fill:#8b9bd3;"/><path d="M3401.364,5420.899c0,0 -2340.379,732.822 -1800.954,1452.055c200.345,267.127 -883.819,945.489 -157.679,1464.161c235.89,168.493 1346.66,79.345 1126.277,-67.577c-517.621,-345.081 -1564.902,-323.282 -901.022,-765.869c772.92,-515.28 46.733,-688.2 22.526,-833.445c-83.313,-499.878 849.4,-404.709 1554.263,-968.599c90.056,-72.045 1125.518,-393.03 608.19,-450.511c-174.789,-19.421 -164.345,14.596 -315.358,90.102l-136.243,79.682Z" style="fill:#8b9bd3;"/><path d="M10750.158,5945.71c1831.979,453.793 1908.094,-193.853 3737.914,283.068c989.717,257.958 1952.077,1959.311 784.723,2127.2c-3136.499,451.092 -3379.515,403.831 -3668.92,347.548c-600.401,-116.765 -854.097,-424.609 -945.279,-878.22c-286.272,-1424.145 -9.699,-2589.702 91.562,-1879.596Z" style="fill:#152660;"/><path d="M10315.072,4851.165c134.061,287.626 384.615,870.888 515.527,1347.625c109.21,397.705 190.346,1037.039 1.573,1590.613c-144.484,423.699 -712.133,734.181 -863.456,747.255c-373.924,32.307 -806.11,283.524 -1552.704,-72.683c-129.55,-61.809 -756.161,-406.597 -990.381,-595.742c-398.615,-321.904 -767.111,-774.035 -769.12,-776.873l3658.561,-2240.195Z" style="fill:#c0c8e3;"/><clipPath id="_clip2"><path d="M10315.072,4851.165c134.061,287.626 384.615,870.888 515.527,1347.625c109.21,397.705 190.346,1037.039 1.573,1590.613c-144.484,423.699 -712.133,734.181 -863.456,747.255c-373.924,32.307 -806.11,283.524 -1552.704,-72.683c-129.55,-61.809 -756.161,-406.597 -990.381,-595.742c-398.615,-321.904 -767.111,-774.035 -769.12,-776.873l3658.561,-2240.195Z"/></clipPath><g clip-path="url(#_clip2)"><path d="M9009.429,6147.645c87.622,101.719 212.281,215.361 418.013,252.044c81.496,14.531 119.298,75.688 68.603,123.976l-118.576,17.327c-110.828,21.243 -121.522,46.849 -367.726,-81.45c-5.201,-2.711 -48.875,-25.469 -51.59,-52.094c-5.508,-54.029 -32.429,-124.276 -62.838,-195.753c37.931,-21.357 75.976,-42.717 114.114,-64.051Z" style="fill:#303f72;"/><path d="M9024.55,7100.209c-6.276,6.699 -12.456,10.825 -18.348,11.601c-4.732,0.624 -8.884,0.175 -12.522,-1.167c10.045,-2.806 20.401,-6.354 30.87,-10.434Z"/><path d="M10488.702,8262.955c-16.292,17.162 -32.779,33.28 -49.399,48.28c-12.253,11.058 7.222,-9.231 49.399,-48.28Zm-128.579,-3372.702l-198.362,118.249l62.268,-80.135c56.371,-24.018 100.483,-36.348 136.095,-38.114Zm128.579,3372.702c409.195,-431.043 696.116,-1520.823 -89.695,-2098.618c-221.967,-163.208 -369.208,-369.096 -467.27,-538.618c667.385,-402.423 631.795,-496.85 495.811,-722.058c80.74,43.536 102.083,188.734 191.128,397.596c38.925,91.3 1278.19,2680.814 1008.879,2451.755c-279.978,-238.131 -946.214,331.589 -1138.852,509.942Z" style="fill:#303f72;"/><path d="M8895.315,6211.696c-1034.932,582.709 -1985.649,1163.452 -2444.014,1173.453c-175.772,3.835 -88.273,-16.89 142.655,-269.034c209.411,-228.65 817.42,-477.8 1184.804,-687.043l2383,-1420.569l-330.872,425.813c25.949,53.021 58.899,118.886 100.848,191.404c-181.22,109.273 -414.273,241.256 -711.223,404.733c-70.593,38.863 -140.996,77.985 -211.085,117.193c-94.039,-109.168 -145.417,-204.601 -208.571,-176.425c14.806,63.689 57.243,153.004 94.457,240.476Zm1464.807,-1321.442l43.589,-25.985c8.192,13.599 16.173,26.704 23.835,39.393c-18.744,-10.107 -40.688,-14.735 -67.425,-13.408Z" style="fill:#1d284e;"/><path d="M8993.68,7110.643c-29.692,8.295 -56.669,10.11 -75.832,0.062c40.561,-201.899 6.862,-237.91 191.537,-329.47c342.848,-169.981 435.534,-190.373 475.84,-199.241c-22.597,41.226 -150.644,274.829 -399.963,430.551c-26.585,16.605 -95.825,62.372 -160.713,87.664c43.268,-46.178 91.112,-214.613 80.612,-250.84c-4.174,-14.4 -38.625,-34.89 -131.066,133.951c-1.432,9.532 -17.094,113.794 19.584,127.323Zm278.621,-351.516c-184.798,247.345 299.173,-62.509 199.871,-86.786c-35.667,-8.72 -184.803,78.022 -199.871,86.786Z" style="fill:#303f72;"/><path d="M8895.315,6211.696c-37.214,-87.472 -79.651,-176.787 -94.457,-240.476c63.154,-28.176 114.532,67.258 208.571,176.425c-38.138,21.334 -76.182,42.694 -114.114,64.051Z" style="fill:#0a163e;"/><path d="M9272.301,6759.127c15.069,-8.764 164.204,-95.505 199.871,-86.786c99.302,24.277 -384.669,334.13 -199.871,86.786Z" style="fill:#0a163e;"/><path d="M8993.68,7110.643c-36.679,-13.529 -21.016,-117.79 -19.584,-127.323c92.441,-168.841 126.892,-148.351 131.066,-133.951c10.501,36.226 -37.344,204.661 -80.612,250.84c-10.469,4.081 -20.825,7.628 -30.87,10.434Z" style="fill:#0a163e;"/><path d="M10161.76,5008.502l198.362,-118.249c26.736,-1.326 48.681,3.302 67.425,13.408c135.984,225.208 171.574,319.635 -495.811,722.058c-41.949,-72.519 -74.899,-138.383 -100.848,-191.404l330.872,-425.813Z" style="fill:#0a163e;"/></g><path d="M7466.202,2450.871c684.84,-395.392 1560.541,-160.749 1955.933,524.091c47.995,83.131 93.379,161.737 134.142,232.341c50.31,87.14 63.944,190.696 37.901,287.888c-26.042,97.192 -89.627,180.057 -176.767,230.367c-799.091,461.355 -2837.062,1637.978 -3636.153,2099.334c-87.14,50.31 -190.696,63.944 -287.888,37.901c-97.192,-26.042 -180.057,-89.627 -230.367,-176.767c-40.763,-70.604 -86.147,-149.211 -134.142,-232.341c-395.392,-684.84 -160.749,-1560.541 524.091,-1955.933c569.634,-328.878 1243.616,-718.002 1813.25,-1046.88Z" style="fill:#07143e;"/><path d="M10268.029,5240.624l-3342.917,1930.034c-142.299,82.157 -324.257,33.401 -406.413,-108.898l-663.688,-1149.541c-82.157,-142.299 -33.401,-324.257 108.898,-406.413l3342.917,-1930.034c142.299,-82.157 324.257,-33.401 406.413,108.898l663.688,1149.541c82.157,142.299 33.401,324.257 -108.898,406.413Z" style="fill:#3654b3;"/><path d="M8969.802,7811.328c210.738,-344.087 394.333,-502.872 394.333,-502.872c0,0 106.474,-22.758 134.608,-96.286c67.375,-176.085 899.938,-159.603 657.924,-56.046c-716.229,306.474 -1025.258,789.725 -1186.866,655.204Z" style="fill:#6178c4;"/><path d="M8969.28,7811.008c13.792,-29.439 13.95,-29.347 29.432,-57.927c2.021,-3.731 3.761,-6.944 28.691,-44.606c8.554,-12.923 137.954,-212.587 294.013,-368.592c22.219,-22.211 37.976,-36.319 39.236,-37.094c2.216,-1.362 13.499,-2.665 37.491,-12.066c36.399,-14.263 73.442,-38.061 90.34,-71.504c5.433,-10.754 8.336,-25.92 30.848,-46.18c122.18,-109.958 574.033,-120.261 666.809,-75.029c0.325,0.158 28.229,11.805 18.066,31.949c-8.922,17.685 -41.472,29.584 -70.268,42.208c-429.103,188.128 -709.751,440.337 -898.832,574.839c-0.568,0.404 -29.666,20.514 -59.686,38.498c-77.771,46.591 -152.087,74.954 -206.733,27.164c-0.281,-0.246 -0.487,-0.556 -0.577,-0.921c-0.13,-0.527 0.046,-0.833 0.206,-1.33l0.964,0.591Zm2.076,-0.68c26.934,20.75 64.626,34.916 137.888,-0.007c47.156,-22.479 94.105,-57.522 128.917,-82.353c200.361,-142.914 476.532,-387.86 916.256,-577.077c1.573,-0.677 37.717,-15.518 40.382,-28.481c2.956,-14.376 -51.534,-34.459 -179.567,-37.371c-202.685,-4.61 -473.632,36.541 -510.047,128.525c-2.533,6.399 -18.97,58.756 -108.52,91.901c-13.701,5.071 -24.808,7.958 -29.353,9.068c-15.28,13.677 -126.753,115.325 -272.722,320.165c-50.469,70.823 -81.266,120.111 -82.987,122.485c-0.729,1.006 -8.69,11.489 -23.864,32.234c-1.305,1.784 -1.394,1.756 -16.384,20.911Z" style="fill:#c0c8e3;"/><path d="M9004.7,7886.008c143.642,-48.343 549.119,-303.217 830.989,-496.355c339.742,-232.792 612.058,-412.523 297.059,-29.282c-237.429,288.866 -220.954,294.072 -560.687,454.779c-285.07,134.85 -253.214,94.001 -567.361,70.858Z" style="fill:#425593;"/><path d="M9016.742,7879.83c32.501,-12.465 128.216,-54.594 370.835,-205.311c207.638,-128.987 378.548,-245.156 410.982,-267.202c151.351,-102.875 379.501,-263.919 450.466,-275.432c0.295,-0.048 24.768,-5.449 28.805,13.723c5.104,24.242 -29.007,83.571 -140.055,218.888c-228.832,278.842 -224.564,295.204 -524.702,438.362c-247.054,117.838 -278.207,123.603 -427.989,107.316c-72.344,-7.866 -81.924,-9.649 -139.055,-13.439c-14.812,-0.983 -17.742,-1.046 -20.415,-1.419c-22.254,-3.105 -22.31,-2.931 -23.502,-3.458c-5.041,-2.23 -4.439,-8.858 -1.373,-10.875c0.608,-0.4 1.312,-0.639 1.92,-1.039l1.494,4.438c0.21,-0.075 0.437,-0.155 0.684,-0.241l0.333,-4.514c4.777,0.084 8.566,0.15 11.573,0.202Zm9.82,0.172c1.754,0.031 1.797,0.034 1.872,0.04c13.542,1.118 52.155,5.625 56.686,6.154c7.409,0.865 7.437,0.572 92.699,10.001c154.386,17.073 177.239,16.669 458.017,-118.638c269.276,-129.764 271.02,-152.287 491.886,-421.314c33.968,-41.375 137.86,-168.525 137.662,-205.686c-0.023,-4.307 -1.386,-7.158 -11.156,-6.298c-67.583,5.946 -339.82,201.355 -511.473,315.845c-84.883,56.616 -266.567,176.566 -463.94,290.309c-144.425,83.23 -219.274,116.633 -252.252,129.587Z" style="fill:#c0c8e3;"/><path d="M7146.019,5223.928c56.127,-32.405 122.829,-41.187 185.431,-24.412c62.602,16.774 115.977,57.73 148.382,113.857c107.302,185.852 262.592,454.822 369.893,640.674c32.405,56.127 41.187,122.829 24.412,185.431c-16.774,62.602 -57.73,115.977 -113.857,148.382c-226.246,130.623 -582.885,336.529 -809.132,467.152c-56.127,32.405 -122.829,41.187 -185.431,24.412c-62.602,-16.774 -115.977,-57.73 -148.382,-113.857c-107.302,-185.852 -262.592,-454.822 -369.893,-640.674c-32.405,-56.127 -41.187,-122.829 -24.412,-185.431c16.774,-62.602 57.73,-115.977 113.857,-148.382c226.246,-130.623 582.885,-336.529 809.132,-467.152Z" style="fill:#0a163e;"/><path d="M9280.788,3991.419c56.127,-32.405 122.829,-41.187 185.431,-24.412c62.602,16.774 115.977,57.73 148.382,113.857c107.302,185.852 262.592,454.822 369.893,640.674c32.405,56.127 41.187,122.829 24.412,185.431c-16.774,62.602 -57.73,115.977 -113.857,148.382c-226.246,130.623 -582.885,336.529 -809.132,467.152c-56.127,32.405 -122.829,41.187 -185.431,24.412c-62.602,-16.774 -115.977,-57.73 -148.382,-113.857c-107.302,-185.852 -262.592,-454.822 -369.893,-640.674c-32.405,-56.127 -41.187,-122.829 -24.412,-185.431c16.774,-62.602 57.73,-115.977 113.857,-148.382c226.246,-130.623 582.885,-336.529 809.132,-467.152Z" style="fill:#568aec;"/><path d="M8778.346,4989.629c209.795,-249.455 700.074,-470.238 912.496,-432.547c88.72,15.742 112.064,357.471 -379.219,521.426c-142.781,47.65 -370.213,85.934 -515.501,65.178c-68.311,-9.759 -51.048,-114.496 -17.776,-154.058Z" style="fill:#b9c2df;"/><clipPath id="_clip3"><path d="M8778.346,4989.629c209.795,-249.455 700.074,-470.238 912.496,-432.547c88.72,15.742 112.064,357.471 -379.219,521.426c-142.781,47.65 -370.213,85.934 -515.501,65.178c-68.311,-9.759 -51.048,-114.496 -17.776,-154.058Z"/></clipPath><g clip-path="url(#_clip3)"><circle cx="9100.868" cy="4872.643" r="225.185" style="fill:#07143e;"/></g><path d="M7446.905,5678.307c-408.289,-21.473 -805.045,251.258 -908.701,440.465c-43.293,79.024 281.534,266.886 717.041,-13.426c126.571,-81.467 225.815,-190.432 300.628,-316.695c35.175,-59.366 -57.346,-107.629 -108.968,-110.344Z" style="fill:#b9c2df;"/><clipPath id="_clip4"><path d="M7446.905,5678.307c-408.289,-21.473 -805.045,251.258 -908.701,440.465c-43.293,79.024 281.534,266.886 717.041,-13.426c126.571,-81.467 225.815,-190.432 300.628,-316.695c35.175,-59.366 -57.346,-107.629 -108.968,-110.344Z"/></clipPath><g clip-path="url(#_clip4)"><path d="M6706.145,5832.573c-77.838,96.889 -62.371,238.745 34.518,316.583c96.889,77.838 238.745,62.371 316.583,-34.518c77.838,-96.889 62.371,-238.745 -34.518,-316.583c-96.889,-77.838 -238.745,-62.371 -316.583,34.518Z" style="fill:#07143e;"/></g><path d="M9700.962,3194.825c74.05,-42.753 162.051,-54.338 244.643,-32.208c82.592,22.131 153.01,76.164 195.763,150.214c219.011,379.337 608.314,1053.63 827.324,1432.967c42.753,74.05 54.338,162.051 32.208,244.643c-22.131,82.592 -76.164,153.01 -150.215,195.763c-0.002,0.001 -0.004,0.003 -0.007,0.004c-74.05,42.753 -162.051,54.338 -244.643,32.208c-82.592,-22.131 -153.01,-76.164 -195.763,-150.214c-219.011,-379.337 -608.314,-1053.63 -827.324,-1432.967c-42.753,-74.05 -54.338,-162.051 -32.208,-244.643c22.131,-82.592 76.164,-153.01 150.215,-195.763c0.002,-0.001 0.004,-0.003 0.007,-0.004Z" style="fill:#152660;"/><path d="M10483.276,3021.663c87.14,-50.31 190.696,-63.944 287.888,-37.901c97.192,26.042 180.057,89.627 230.367,176.767c122.82,212.73 282.149,488.697 404.969,701.428c50.31,87.14 63.944,190.696 37.901,287.888c-26.042,97.192 -89.627,180.057 -176.767,230.367c-26.264,15.164 -52.8,30.484 -79.064,45.648c-87.14,50.31 -190.696,63.944 -287.888,37.901c-97.192,-26.042 -180.057,-89.627 -230.367,-176.767c-122.82,-212.73 -282.149,-488.697 -404.969,-701.428c-50.31,-87.14 -63.944,-190.696 -37.901,-287.888c26.042,-97.192 89.627,-180.057 176.767,-230.367c26.264,-15.164 52.8,-30.484 79.064,-45.648Z" style="fill:#07143e;"/><path d="M5011.05,6315.133c87.14,-50.31 190.696,-63.944 287.888,-37.901c97.192,26.042 180.057,89.627 230.367,176.767c122.82,212.73 282.149,488.697 404.969,701.428c50.31,87.14 63.944,190.696 37.901,287.888c-26.042,97.192 -89.627,180.057 -176.767,230.367c-26.264,15.164 -52.8,30.484 -79.064,45.648c-87.14,50.31 -190.696,63.944 -287.888,37.901c-97.192,-26.042 -180.057,-89.627 -230.367,-176.767c-122.82,-212.73 -282.149,-488.697 -404.969,-701.428c-50.31,-87.14 -63.944,-190.696 -37.901,-287.888c26.042,-97.192 89.627,-180.057 176.767,-230.367c26.264,-15.164 52.8,-30.484 79.064,-45.648Z" style="fill:#07143e;"/><path d="M5403.557,5676.23c74.05,-42.753 162.051,-54.338 244.643,-32.208c82.592,22.131 153.01,76.164 195.763,150.214c219.011,379.337 608.314,1053.63 827.324,1432.967c42.753,74.05 54.338,162.051 32.208,244.643c-22.131,82.592 -76.164,153.01 -150.215,195.763c-0.002,0.001 -0.004,0.003 -0.007,0.004c-74.05,42.753 -162.051,54.338 -244.643,32.208c-82.592,-22.131 -153.01,-76.164 -195.763,-150.214c-219.011,-379.337 -608.314,-1053.63 -827.324,-1432.967c-42.753,-74.05 -54.338,-162.051 -32.208,-244.643c22.131,-82.592 76.164,-153.01 150.215,-195.763c0.002,-0.001 0.004,-0.003 0.007,-0.004Z" style="fill:#152660;"/><path d="M4765.129,6559.694l-389.991,-675.483c-427.092,-739.746 -420.233,-1732.169 319.513,-2159.262l3117.848,-1800.09c739.746,-427.092 1932.251,-127.122 2359.343,612.623l287.515,497.991l-55.146,31.839c-50.258,29.017 -92.681,68.863 -124.585,116.041l-306.616,-531.075c-363.692,-629.934 -1415.781,-892.279 -2045.715,-528.587l-3117.848,1800.09c-629.934,363.692 -599.169,1215.7 -235.477,1845.634l345.709,598.785c-71.502,44.971 -125.807,112.438 -154.55,191.495Z" style="fill:#2047cb;"/><path d="M15765.617,6526.359c-2326.362,-1839.62 -2382.635,1238.12 -5233.131,1308.09c-1854.646,45.525 -2160.438,1059.134 -5009.454,-165.794c-1655.44,-711.753 -1793.325,-373.255 -3521.636,162.047c-1606.13,497.459 -4833.076,-173.299 -4662.16,799.607c400.017,2277.021 1191.73,1776.663 4160.967,2047.277c3487.214,317.822 3476.512,477.9 6971.545,253.253c3679.967,-236.534 3648.554,198.566 5785.86,369.254c1418.639,113.294 2453.309,-801.313 2506.852,-837.683" style="fill:#384b88;"/><clipPath id="_clip5"><path d="M15765.617,6526.359c-2326.362,-1839.62 -2382.635,1238.12 -5233.131,1308.09c-1854.646,45.525 -2160.438,1059.134 -5009.454,-165.794c-1655.44,-711.753 -1793.325,-373.255 -3521.636,162.047c-1606.13,497.459 -4833.076,-173.299 -4662.16,799.607c400.017,2277.021 1191.73,1776.663 4160.967,2047.277c3487.214,317.822 3476.512,477.9 6971.545,253.253c3679.967,-236.534 3648.554,198.566 5785.86,369.254c1418.639,113.294 2453.309,-801.313 2506.852,-837.683"/></clipPath><g clip-path="url(#_clip5)"><path d="M3154.074,8094.188c0,0 1295.864,-351.541 2575.739,145.261c991.131,384.722 976.552,494.59 2003.94,471.438c1657.269,-37.347 1627.892,746.942 3233.375,342.684c3477.669,-875.672 3769.759,-1069.092 4052.778,-1256.507c21.4,-14.171 1076.785,-851.576 1017.486,-344.664c-57.132,488.385 -305.607,284.226 -2125.431,1048.519c-854.875,359.032 -5398.411,1619.503 -6380.914,1204.345c-1227.07,-518.5 -1738.478,-1149.631 -2869.563,-390.224c-1091.87,733.079 -1770.942,1636.687 -4732.203,906.56c-1515.375,-373.63 -696.891,-1333.109 998.338,-1723.322c1961.597,-451.526 2226.453,-404.089 2226.453,-404.089Z" style="fill:#8b9bd3;"/></g></g></svg>