<?xml version="1.0" encoding="UTF-8"?>
<svg id="Layer_2" data-name="Layer 2" xmlns="http://www.w3.org/2000/svg" viewBox="0 0 1080.07 1919">
  <defs>
    <style>
      .cls-1 {
        fill: #fff;
      }

      .cls-2 {
        fill: #f15a24;
      }

      .cls-3 {
        fill: #f7931e;
      }
    </style>
  </defs>
  <rect width="1080.07" height="1919"/>
  <path class="cls-3" d="m809.13,1367.8s75.37-19.71,96.97,45.47c0,0-23.68,24.82-12.13,41.87l22.9,32.05s31.1,22.9,44.74,45.07c0,0,28.61,46.42-21.22,79.96l-29.75,19.89-137.18,68.02-84.51,46.42s-34.29,27.09-46.61,46.23c-12.32,19.14-35.43,46.99-52.86,82.61l-22.74,42.11-39.03-1s60.26-160.64,104.97-160.47l122.02-154.99,54.42-233.24Z"/>
  <path class="cls-3" d="m774.43,1248.58l30.69.06s43.2,25.71,22.74,62.08l-18.44,38.15s-5.7,9.45-2.35,22.28c0,0-31.33,8.22-26.12-21.05,0,0,.17-16.89,26.94-50.49l-33.47-51.03Z"/>
  <path d="m822.55,1285.97s-13.89,32.08-33.85,45.09c0,0-21.47,42.39,7.2,41.15l9.26.03v-18.44s10.2-29.68,20.93-41.43c0,0,8.08-18.69-3.54-26.4Z"/>
  <path class="cls-3" d="m768.87,1116.71s38.02,31.07-26.91,95.24c0,0-13.39,22.23,33.73,36.63,0,0-27.66,2.27-47.37-20.46,0,0-62.75,21.57-44.64-32.92,0,0,46.66-65.35,85.18-78.49Z"/>
  <path class="cls-2" d="m187.56,1917.74s34.48-71.28,192.13-86.44l118.23-14.78s123.54-19.71,60.25-148.17c0,0-46.61-75.03,14.02-92.46,0,0,17.05-59.49-79.58-77.31,0,0-1.52-21.22,27.66-48.88,0,0,61.39-39.03,23.87-78.44,0,0-46.99-19.71-46.99-50.4,0,0-6.29-.72,52.84-39.35.69-.45,1.39-.91,2.11-1.37,61.39-39.99-1.41.92-1.41.92,0,0,36.65-27.27,2.55-59.86,0,0-112.17-61.01-186.82-127.71,0,0-33.73-34.11-19.33-64.42,0,0,22.36-39.79,50.02-49.64,0,0,50.4-19.33,71.24,27.28,0,0,27.66,51.92,47.37,59.12,0,0,54.57,23.87,90.57,22.36l162.57,25.77s-3.41,21.6-37.89,40.55c0,0-43.96,27.28-48.13,39.79,0,0-17.05,49.26,45.47,31.07,0,0,15.16,21.22,47.37,20.46,0,0,57.98,19.33,24.63,64.42l-17.05,33.35s-10.99,28.8,22.74,25.39c0,0,64.8-18.95,82.23,43.2,0,0-17.43,19.33,0,45.47,0,0,54.19,54.95,63.28,62.91,0,0,32.1,34.45,6.82,72.38-1.52,2.27-53.81,55.71-171.28,88.29l-98.91,40.17s-55.71,17.05-96.63,88.29c0,0-62.53,106.04-62.91,107.04-.38,1-341.05,1-341.05,1Z"/>
  <path class="cls-2" d="m353.16,988.63s39.41-46.99,79.58-21.98c0,0-112.17-79.58-171.28-87.92,0,0,83.37,76.55,91.71,109.89Z"/>
  <path class="cls-3" d="m443.73,1042.06s40.22,31.28,42.66,48.61c0,0,21.09-7.87,31.66,1.7,0,0-25.05-39.7-74.32-50.31Z"/>
  <path d="m410.76,1104.85s40.93,27.28,103.58,22.48l-5.81-13.14s43.45,2.02,58.36-14.91c0,0-17.43,7.58-33.85,5.81,0,0-13.64-28.04-54.82-12.88,0,0-21.47,12.13-67.45,12.63Z"/>
  <path d="m711.39,1216.25s3.28-34.36,25.01-43.96c0,0,36.63-16.17,13.64,12.38,0,0-8.69,11.87-19.88,4.8,0,0-18.77,18.44-18.77,26.78Z"/>
  <path class="cls-1" d="m821.08,1294.85l4.04,8.34s2.44,14.38-32.63,25.13l28.59-33.46Z"/>
</svg>